<svg width="129" height="42" viewBox="0 0 129 42" fill="none" xmlns="http://www.w3.org/2000/svg">
<path d="M43.5 36.61C43.5 36.4537 43.5156 36.2688 43.5469 36.0553L44.5234 35.8834C44.6432 35.8574 44.7865 35.8157 44.9531 35.7584L45.0547 33.8053C45.0339 33.1021 45.0234 32.5761 45.0234 32.2271L45.0312 32.0396C45.0469 31.8261 45.0547 31.2896 45.0547 30.4303L45.0391 30.2037L45.0547 29.5475L45.0469 28.8678V28.5318C45.0469 28.2297 45.0234 27.8756 44.9766 27.4693C44.9714 27.4329 44.9505 27.3704 44.9141 27.2818C44.8724 27.2662 44.8255 27.2558 44.7734 27.2506C44.7266 27.2454 44.6771 27.2376 44.625 27.2271C44.4219 27.1907 44.2057 27.1646 43.9766 27.149L43.8594 27.1178C43.7188 27.1021 43.612 27.0813 43.5391 27.0553C43.5234 26.9042 43.5156 26.8079 43.5156 26.7662C43.5156 26.7037 43.5312 26.6178 43.5625 26.5084C43.6667 26.4876 43.8125 26.4771 44 26.4771C44.1875 26.4771 44.3177 26.4745 44.3906 26.4693C45.026 26.537 45.4974 26.5735 45.8047 26.5787C45.9453 26.5787 46.0859 26.5839 46.2266 26.5943C46.3724 26.5995 46.5 26.6021 46.6094 26.6021C46.7812 26.6021 47.2005 26.5761 47.8672 26.524C47.9766 26.498 48.0964 26.485 48.2266 26.485C48.4193 26.485 48.5807 26.4954 48.7109 26.5162C48.7161 26.6256 48.7188 26.7037 48.7188 26.7506C48.7188 26.8339 48.7083 26.9355 48.6875 27.0553L47.3125 27.274C47.1979 27.3261 47.1406 27.4016 47.1406 27.5006L47.1641 27.7896L47.1719 27.9146L47.1641 28.2584L47.1484 28.524V28.5865C47.1536 28.6438 47.1562 28.6933 47.1562 28.735L47.1484 29.7271C47.1536 29.8209 47.1562 29.8912 47.1562 29.9381C47.1562 29.9641 47.151 30.0475 47.1406 30.1881C47.1354 30.2714 47.1328 30.3574 47.1328 30.4459C47.1328 30.524 47.1406 30.7089 47.1562 31.0006C47.3021 31.0266 47.4245 31.0422 47.5234 31.0475L48.6797 31.0709H49.2422L50.6484 31.0787L52.0156 31.0396C52.1927 31.0396 52.3802 31.0214 52.5781 30.985C52.5885 30.8079 52.5964 30.373 52.6016 29.6803L52.6172 29.3287L52.5703 28.0006L52.5156 27.4537C52.5 27.4172 52.4635 27.3834 52.4062 27.3521C52.224 27.248 51.8594 27.1308 51.3125 27.0006C51.2135 26.9797 51.1198 26.9537 51.0312 26.9225C51.0417 26.7402 51.0625 26.5917 51.0938 26.4771C51.2083 26.4719 51.2786 26.4693 51.3047 26.4693L52.0625 26.4771C52.5469 26.5396 53.0391 26.5709 53.5391 26.5709C53.6536 26.5709 53.7448 26.5683 53.8125 26.5631L54.8281 26.5318C54.9219 26.5266 55.013 26.5214 55.1016 26.5162C55.2891 26.4745 55.4818 26.4537 55.6797 26.4537C55.8307 26.4537 56.013 26.4615 56.2266 26.4771C56.2214 26.6803 56.2083 26.8652 56.1875 27.0318C55.7083 27.1308 55.3932 27.2037 55.2422 27.2506C55.0964 27.2922 54.9479 27.3521 54.7969 27.4303L54.75 27.5865V27.7193L54.7578 27.9225L54.75 28.024C54.7396 28.1334 54.7344 28.2167 54.7344 28.274V28.4693C54.7396 28.7037 54.7422 28.8339 54.7422 28.86V29.8521L54.75 30.6021L54.7344 31.5943C54.7292 31.8235 54.737 32.2922 54.7578 33.0006V34.11L54.7734 35.0318C54.7734 35.2037 54.7682 35.412 54.7578 35.6568C54.8672 35.6881 54.9688 35.7141 55.0625 35.735C55.5521 35.8391 55.9219 35.9459 56.1719 36.0553L56.1953 36.6021C55.987 36.6074 55.8646 36.61 55.8281 36.61C55.5781 36.61 55.2917 36.5943 54.9688 36.5631C54.5417 36.5162 53.8542 36.4928 52.9062 36.4928C52.4792 36.4928 51.9271 36.5266 51.25 36.5943C51.1771 36.5943 51.0885 36.5787 50.9844 36.5475C50.9896 36.3079 51.0026 36.1386 51.0234 36.0396L51.625 35.899L52.2578 35.7975C52.3203 35.7818 52.401 35.7584 52.5 35.7271C52.5573 35.3053 52.5885 34.6047 52.5938 33.6256L52.6016 32.9615C52.5703 32.6855 52.5547 32.3547 52.5547 31.9693C52.362 31.9537 52.1536 31.9433 51.9297 31.9381L48.3047 31.899L48.2344 31.8912L48.1797 31.8834C48.1432 31.8834 48.1016 31.886 48.0547 31.8912C47.9193 31.8964 47.8047 31.899 47.7109 31.899H47.4922C47.3932 31.899 47.2812 31.9172 47.1562 31.9537L47.125 32.5396V32.6412C47.1354 32.7818 47.1406 32.873 47.1406 32.9146V35.3365C47.1406 35.4719 47.1484 35.61 47.1641 35.7506L47.2422 35.7975L48.3906 35.9771C48.4479 35.998 48.4922 36.011 48.5234 36.0162C48.5911 36.0318 48.6484 36.0553 48.6953 36.0865C48.7109 36.2063 48.7188 36.287 48.7188 36.3287C48.7188 36.3964 48.7083 36.4902 48.6875 36.61C48.5 36.6152 48.3411 36.6178 48.2109 36.6178C48.0964 36.6178 47.9896 36.6152 47.8906 36.61C47.8438 36.61 47.7995 36.6074 47.7578 36.6021L46.6562 36.5553C46.3958 36.5292 46.0312 36.5162 45.5625 36.5162L45.3984 36.524C45.1797 36.5344 45.0521 36.5422 45.0156 36.5475C44.6927 36.5891 44.1875 36.61 43.5 36.61ZM56.6406 36.6334L56.6562 36.1021C56.7552 36.0709 56.9297 36.0318 57.1797 35.985C57.5807 35.9068 57.8229 35.8365 57.9062 35.774C57.9948 35.7115 58.1016 35.5605 58.2266 35.3209L59.8047 31.1881L61.6562 26.3287C61.8281 26.3339 61.9922 26.3365 62.1484 26.3365H62.5L62.5703 26.4771L63.9297 29.6959C64.237 30.3782 64.513 31.0422 64.7578 31.6881C65.0026 32.3287 65.2135 32.8521 65.3906 33.2584C65.4948 33.5032 65.638 33.8704 65.8203 34.36C65.9141 34.6256 66.0573 34.9589 66.25 35.36C66.3542 35.5787 66.4323 35.7063 66.4844 35.7428C66.5781 35.8209 66.7292 35.873 66.9375 35.899C67.151 35.9251 67.3802 35.985 67.625 36.0787C67.651 36.2506 67.6641 36.3782 67.6641 36.4615C67.6641 36.498 67.6615 36.5553 67.6562 36.6334C67.2708 36.6334 66.8464 36.6152 66.3828 36.5787C65.9193 36.5422 65.5026 36.524 65.1328 36.524C64.7214 36.524 64.4245 36.5292 64.2422 36.5396L62.9141 36.61L62.5312 36.6256C62.5312 36.4433 62.5391 36.2688 62.5547 36.1021L63.4219 35.9146C63.6823 35.8469 63.8333 35.7949 63.875 35.7584C63.9271 35.7063 63.9531 35.6464 63.9531 35.5787C63.9531 35.511 63.9401 35.4407 63.9141 35.3678L63.6016 34.6021L62.9844 33.0709L60 33.0631C59.8906 33.3131 59.6641 33.9251 59.3203 34.899C59.2214 35.1751 59.1719 35.3626 59.1719 35.4615C59.1719 35.5969 59.2083 35.6933 59.2812 35.7506C59.401 35.8495 59.6302 35.9199 59.9688 35.9615C60.0156 35.9719 60.2005 36.0006 60.5234 36.0475C60.5286 36.235 60.5312 36.3652 60.5312 36.4381C60.5312 36.4954 60.526 36.5553 60.5156 36.6178C60.1927 36.6178 59.4219 36.5735 58.2031 36.485L57.8828 36.5396C57.4974 36.6021 57.1302 36.6334 56.7812 36.6334H56.6406ZM60.3125 32.2428C61.5312 32.2584 62.25 32.2662 62.4688 32.2662L62.6641 32.2584C62.5078 31.7949 62.3047 31.2558 62.0547 30.6412C61.8047 30.0214 61.6016 29.5501 61.4453 29.2271L60.3125 32.2428ZM67.9844 36.6412V36.0787C68.0885 36.0475 68.2604 36.0032 68.5 35.9459C68.8385 35.8626 69.0911 35.7766 69.2578 35.6881C69.3516 35.5266 69.3984 35.3027 69.3984 35.0162L69.3906 34.0943L69.4062 32.3131L69.3984 31.8912C69.4349 30.86 69.4531 30.3287 69.4531 30.2975L69.4375 29.2584L69.4609 28.8365L69.4219 27.9459L69.4141 27.61C69.4089 27.5579 69.3906 27.4745 69.3594 27.36C69.1458 27.261 68.7995 27.1985 68.3203 27.1725C68.2057 27.1672 68.1146 27.1594 68.0469 27.149L68.0234 26.4615L70.2578 26.5553C70.5339 26.5657 70.7057 26.5709 70.7734 26.5709C71.0807 26.5709 71.5729 26.5501 72.25 26.5084C72.6302 26.4824 72.8698 26.4667 72.9688 26.4615C72.974 26.5605 72.9766 26.6438 72.9766 26.7115C72.9766 26.8001 72.9714 26.9146 72.9609 27.0553C72.7526 27.1282 72.513 27.1985 72.2422 27.2662C71.9766 27.3287 71.7578 27.3938 71.5859 27.4615C71.5547 27.5969 71.5391 27.7922 71.5391 28.0475C71.5391 28.2714 71.5469 28.4537 71.5625 28.5943C71.5469 29.4745 71.5391 30.1516 71.5391 30.6256L71.5469 32.6881L71.5234 33.735L71.5391 35.2975L71.5312 35.5943C71.5312 35.636 71.5417 35.6959 71.5625 35.774C71.8802 35.8417 72.1693 35.8886 72.4297 35.9146C72.4766 35.9199 72.6354 35.9407 72.9062 35.9771C72.9271 36.1334 72.9375 36.2636 72.9375 36.3678C72.9375 36.4251 72.9349 36.5136 72.9297 36.6334C72.862 36.6334 72.8099 36.636 72.7734 36.6412C72.6068 36.6516 72.5104 36.6568 72.4844 36.6568C72.4479 36.6568 72.3802 36.649 72.2812 36.6334C72.2083 36.623 71.862 36.5865 71.2422 36.524L69.8594 36.5084C69.5833 36.5084 69.1823 36.5344 68.6562 36.5865C68.3125 36.6178 68.0885 36.636 67.9844 36.6412ZM74.3438 36.1568C74.4792 36.0839 74.6797 36.0318 74.9453 36.0006C75.2109 35.9641 75.4505 35.9068 75.6641 35.8287C75.6901 35.7245 75.7057 35.649 75.7109 35.6021C75.7214 35.5292 75.7266 35.2792 75.7266 34.8521L75.7188 33.11L75.75 32.1725L75.7344 31.4459L75.75 31.024C75.7656 30.4563 75.7734 29.9251 75.7734 29.4303C75.7734 28.3469 75.7604 27.6542 75.7344 27.3521L75.2734 27.2584C74.8516 27.2324 74.5703 27.2063 74.4297 27.1803L74.4141 26.7115L74.4453 26.6256C74.7057 26.5839 74.9453 26.5631 75.1641 26.5631C75.2839 26.5631 75.526 26.5605 75.8906 26.5553C76.2656 26.5865 76.4688 26.6021 76.5 26.6021L76.9141 26.5787L77.8906 26.5318C78.5 26.4693 79.1432 26.4381 79.8203 26.4381C80.888 26.4381 81.737 26.7115 82.3672 27.2584C82.9974 27.8001 83.3125 28.4225 83.3125 29.1256C83.3125 29.6516 83.1406 30.1308 82.7969 30.5631C82.4583 30.9902 81.9349 31.3131 81.2266 31.5318C81.2891 31.6412 81.3724 31.7688 81.4766 31.9146C81.6953 32.2271 81.8724 32.4928 82.0078 32.7115L83.2578 34.735C83.5703 35.2714 83.7734 35.5865 83.8672 35.6803C83.9661 35.7688 84.1667 35.8678 84.4688 35.9771C84.7031 36.0657 84.8828 36.1542 85.0078 36.2428C85.0391 36.3313 85.0547 36.4094 85.0547 36.4771C85.0547 36.524 85.0521 36.5839 85.0469 36.6568H84.8359L84.6797 36.6646L84.2734 36.61H83.9531C83.7865 36.5839 83.5807 36.5709 83.3359 36.5709L82.5547 36.5631C82.4974 36.5631 82.3151 36.5813 82.0078 36.6178C81.8672 36.6334 81.7552 36.6464 81.6719 36.6568L81.4062 36.1412C81.1875 35.7506 81.0339 35.4589 80.9453 35.2662C80.7161 34.761 80.3229 33.9563 79.7656 32.8521C79.5052 32.3417 79.3229 32.0527 79.2188 31.985C79.0625 31.8756 78.7943 31.8209 78.4141 31.8209C78.3099 31.8209 78.1328 31.8261 77.8828 31.8365C77.8672 31.9876 77.8594 32.1672 77.8594 32.3756L77.8906 34.11L77.8516 35.5787C77.9974 35.6672 78.1875 35.735 78.4219 35.7818C78.8281 35.8652 79.1771 35.9641 79.4688 36.0787C79.4688 36.3339 79.4583 36.5266 79.4375 36.6568C79.3385 36.6516 79.276 36.649 79.25 36.649L78.9297 36.6646C77.8099 36.5657 77.1458 36.5162 76.9375 36.5162C76.8021 36.5162 76.7057 36.5188 76.6484 36.524L75.5703 36.5943C75.2422 36.6308 74.9427 36.649 74.6719 36.649H74.3359C74.3255 36.5188 74.3203 36.4355 74.3203 36.399C74.3203 36.3417 74.3281 36.261 74.3438 36.1568ZM77.8594 31.1021C78.1094 31.1126 78.2917 31.1178 78.4062 31.1178C79.2917 31.1178 79.9193 30.9589 80.2891 30.6412C80.6589 30.3235 80.8438 29.899 80.8438 29.3678C80.8438 29.0396 80.7969 28.7324 80.7031 28.4459C80.6146 28.1542 80.5026 27.9381 80.3672 27.7975C80.1745 27.5943 79.9219 27.4407 79.6094 27.3365C79.3802 27.2584 79.013 27.2193 78.5078 27.2193C78.2682 27.2193 78.0625 27.2324 77.8906 27.2584L77.8828 27.4068L77.8906 28.4615L77.875 29.1021L77.8828 29.9537C77.8724 30.1933 77.8646 30.5032 77.8594 30.8834V31.1021ZM85.4297 36.7037L85.4453 36.0787C85.5703 36.0475 85.7214 36.0188 85.8984 35.9928C86.237 35.9459 86.513 35.8782 86.7266 35.7896C86.7995 35.6699 86.8464 35.5553 86.8672 35.4459C86.9089 35.1542 86.9297 34.7245 86.9297 34.1568L86.9141 30.8365C86.9141 30.4928 86.8958 29.5943 86.8594 28.1412C86.849 27.7506 86.8229 27.5084 86.7812 27.4146C86.7656 27.3834 86.7396 27.3574 86.7031 27.3365C86.6198 27.2792 86.4635 27.2454 86.2344 27.235C86.1354 27.2297 85.8802 27.2011 85.4688 27.149L85.4453 26.5943L87.1953 26.5553L89.75 26.4693L90.0547 26.4615C90.1172 26.4563 90.1797 26.4537 90.2422 26.4537C90.2943 26.4537 90.4323 26.4563 90.6562 26.4615H91.1562C91.5521 26.4563 91.9818 26.5162 92.4453 26.6412C92.6068 26.6829 92.8203 26.7714 93.0859 26.9068C93.3516 27.037 93.5807 27.2063 93.7734 27.4146C93.9714 27.6178 94.1172 27.8469 94.2109 28.1021C94.3047 28.3574 94.3516 28.6282 94.3516 28.9146C94.3516 29.2324 94.2812 29.5188 94.1406 29.774C94 30.024 93.7865 30.2558 93.5 30.4693C93.3542 30.5735 93.0182 30.7454 92.4922 30.985C93.2786 31.162 93.8776 31.4876 94.2891 31.9615C94.7005 32.4303 94.9062 32.9537 94.9062 33.5318C94.9062 33.8756 94.8411 34.235 94.7109 34.61C94.6172 34.8912 94.4583 35.1516 94.2344 35.3912C93.9375 35.7089 93.6224 35.9485 93.2891 36.11C92.9609 36.2714 92.5052 36.4042 91.9219 36.5084C91.6302 36.5605 91.1875 36.5865 90.5938 36.5865L89.2656 36.5553C88.7031 36.5553 88.0339 36.5813 87.2578 36.6334C87.0391 36.6438 86.4297 36.6672 85.4297 36.7037ZM89.0703 30.774C89.2786 30.8053 89.5234 30.8209 89.8047 30.8209C90.5859 30.8209 91.1771 30.6777 91.5781 30.3912C91.9792 30.0995 92.1797 29.5995 92.1797 28.8912C92.1797 28.3912 91.9896 27.9745 91.6094 27.6412C91.2292 27.3079 90.6562 27.1412 89.8906 27.1412C89.6719 27.1412 89.3802 27.1699 89.0156 27.2271C89.0156 27.3469 89.0208 27.5188 89.0312 27.7428C89.0573 28.1855 89.0703 28.8053 89.0703 29.6021L89.0625 30.2584C89.0625 30.373 89.0651 30.5449 89.0703 30.774ZM89.1641 35.7506C89.5026 35.8912 89.8177 35.9615 90.1094 35.9615C90.7031 35.9615 91.1875 35.873 91.5625 35.6959C91.9375 35.5136 92.2109 35.261 92.3828 34.9381C92.5547 34.6152 92.6406 34.2115 92.6406 33.7271C92.6406 33.2271 92.5469 32.8261 92.3594 32.524C92.099 32.1074 91.7839 31.8287 91.4141 31.6881C91.0443 31.5422 90.4896 31.4693 89.75 31.4693C89.4219 31.4693 89.1953 31.4928 89.0703 31.5396V32.5006L89.0625 33.6568L89.0859 35.4537C89.0911 35.537 89.1172 35.636 89.1641 35.7506ZM96.4062 31.4537C96.4062 30.8079 96.5312 30.1594 96.7812 29.5084C96.9635 29.0396 97.2188 28.61 97.5469 28.2193C97.875 27.8287 98.2865 27.4824 98.7812 27.1803C99.276 26.873 99.7812 26.6542 100.297 26.524C100.812 26.3886 101.388 26.3209 102.023 26.3209C103.107 26.3209 104.047 26.524 104.844 26.9303C105.641 27.3365 106.268 27.886 106.727 28.5787C107.32 29.4797 107.617 30.4251 107.617 31.4146C107.617 32.8886 107.115 34.1516 106.109 35.2037C105.109 36.2558 103.716 36.7818 101.93 36.7818C101.487 36.7818 101.073 36.7532 100.688 36.6959C100.396 36.6542 100.141 36.5969 99.9219 36.524C99.526 36.3938 99.3047 36.3183 99.2578 36.2975C98.6901 35.9745 98.2344 35.6438 97.8906 35.3053C97.5469 34.9667 97.2552 34.5839 97.0156 34.1568C96.8854 33.9172 96.737 33.485 96.5703 32.86C96.4609 32.4589 96.4062 31.9902 96.4062 31.4537ZM101.727 27.0943C101.273 27.0943 100.872 27.2011 100.523 27.4146C100.174 27.623 99.9115 27.8547 99.7344 28.11C99.4375 28.5422 99.2266 29.0162 99.1016 29.5318C98.9766 30.0422 98.9141 30.6646 98.9141 31.399C98.9141 31.8469 98.9323 32.1672 98.9688 32.36C98.9792 32.4225 98.9948 32.5292 99.0156 32.6803C99.0625 33.0657 99.1172 33.3469 99.1797 33.524C99.4036 34.1855 99.5625 34.5943 99.6562 34.7506C99.8125 35.0162 100.044 35.2792 100.352 35.5396C100.508 35.6751 100.734 35.8001 101.031 35.9146C101.328 36.024 101.625 36.0787 101.922 36.0787C102.484 36.0787 103.005 35.9485 103.484 35.6881C103.969 35.4225 104.357 34.9745 104.648 34.3443C104.94 33.7141 105.086 32.8938 105.086 31.8834C105.086 31.4667 105.057 30.9016 105 30.1881L104.961 30.0396C104.945 29.998 104.919 29.8912 104.883 29.7193C104.69 28.8652 104.32 28.2141 103.773 27.7662C103.232 27.3183 102.549 27.0943 101.727 27.0943ZM114.977 26.7506C115.029 26.9277 115.076 27.1959 115.117 27.5553C115.18 28.0917 115.211 28.5084 115.211 28.8053C115.211 28.899 115.201 29.0006 115.18 29.11L115.102 29.1334L114.539 29.0943L114.445 29.0787C114.216 28.3912 113.987 27.9251 113.758 27.6803C113.362 27.2636 112.896 27.0553 112.359 27.0553C111.849 27.0553 111.443 27.1907 111.141 27.4615C110.844 27.7271 110.695 28.0579 110.695 28.4537C110.695 28.787 110.844 29.1074 111.141 29.4146C111.432 29.7219 112.052 30.0162 113 30.2975C113.318 30.3912 113.701 30.5422 114.148 30.7506C114.602 30.9589 114.945 31.1855 115.18 31.4303C115.492 31.7532 115.706 32.0657 115.82 32.3678C115.94 32.6646 116 33.037 116 33.485C116 33.9745 115.909 34.4563 115.727 34.9303C115.628 35.1803 115.469 35.4172 115.25 35.6412C115.094 35.7975 114.852 35.9824 114.523 36.1959C114.195 36.4042 113.854 36.5553 113.5 36.649C113.151 36.7428 112.701 36.7896 112.148 36.7896C111.784 36.7896 111.349 36.7376 110.844 36.6334L109.906 36.36C109.646 36.287 109.482 36.2219 109.414 36.1646C109.388 36.1438 109.365 36.0943 109.344 36.0162V35.9303C109.344 35.873 109.331 35.5162 109.305 34.86C109.294 34.5214 109.289 34.2818 109.289 34.1412V33.8443L110.008 33.8287C110.258 34.4068 110.419 34.7558 110.492 34.8756C110.654 35.1412 110.831 35.3574 111.023 35.524C111.221 35.6855 111.456 35.8157 111.727 35.9146C111.997 36.0084 112.292 36.0553 112.609 36.0553C112.891 36.0553 113.201 35.9954 113.539 35.8756C113.878 35.7558 114.148 35.5605 114.352 35.2896C114.56 35.0136 114.664 34.7193 114.664 34.4068C114.664 34.0214 114.484 33.6646 114.125 33.3365C113.906 33.1334 113.318 32.8626 112.359 32.524C111.401 32.1855 110.737 31.8834 110.367 31.6178C109.997 31.3521 109.706 30.998 109.492 30.5553C109.279 30.1074 109.172 29.6777 109.172 29.2662C109.172 28.4381 109.469 27.735 110.062 27.1568C110.656 26.5787 111.531 26.2896 112.688 26.2896C112.938 26.2896 113.307 26.3339 113.797 26.4225C114.094 26.4745 114.487 26.5839 114.977 26.7506ZM123.148 26.7506C123.201 26.9277 123.247 27.1959 123.289 27.5553C123.352 28.0917 123.383 28.5084 123.383 28.8053C123.383 28.899 123.372 29.0006 123.352 29.11L123.273 29.1334L122.711 29.0943L122.617 29.0787C122.388 28.3912 122.159 27.9251 121.93 27.6803C121.534 27.2636 121.068 27.0553 120.531 27.0553C120.021 27.0553 119.615 27.1907 119.312 27.4615C119.016 27.7271 118.867 28.0579 118.867 28.4537C118.867 28.787 119.016 29.1074 119.312 29.4146C119.604 29.7219 120.224 30.0162 121.172 30.2975C121.49 30.3912 121.872 30.5422 122.32 30.7506C122.773 30.9589 123.117 31.1855 123.352 31.4303C123.664 31.7532 123.878 32.0657 123.992 32.3678C124.112 32.6646 124.172 33.037 124.172 33.485C124.172 33.9745 124.081 34.4563 123.898 34.9303C123.799 35.1803 123.641 35.4172 123.422 35.6412C123.266 35.7975 123.023 35.9824 122.695 36.1959C122.367 36.4042 122.026 36.5553 121.672 36.649C121.323 36.7428 120.872 36.7896 120.32 36.7896C119.956 36.7896 119.521 36.7376 119.016 36.6334L118.078 36.36C117.818 36.287 117.654 36.2219 117.586 36.1646C117.56 36.1438 117.536 36.0943 117.516 36.0162V35.9303C117.516 35.873 117.503 35.5162 117.477 34.86C117.466 34.5214 117.461 34.2818 117.461 34.1412V33.8443L118.18 33.8287C118.43 34.4068 118.591 34.7558 118.664 34.8756C118.826 35.1412 119.003 35.3574 119.195 35.524C119.393 35.6855 119.628 35.8157 119.898 35.9146C120.169 36.0084 120.464 36.0553 120.781 36.0553C121.062 36.0553 121.372 35.9954 121.711 35.8756C122.049 35.7558 122.32 35.5605 122.523 35.2896C122.732 35.0136 122.836 34.7193 122.836 34.4068C122.836 34.0214 122.656 33.6646 122.297 33.3365C122.078 33.1334 121.49 32.8626 120.531 32.524C119.573 32.1855 118.909 31.8834 118.539 31.6178C118.169 31.3521 117.878 30.998 117.664 30.5553C117.451 30.1074 117.344 29.6777 117.344 29.2662C117.344 28.4381 117.641 27.735 118.234 27.1568C118.828 26.5787 119.703 26.2896 120.859 26.2896C121.109 26.2896 121.479 26.3339 121.969 26.4225C122.266 26.4745 122.659 26.5839 123.148 26.7506Z" fill="#995544"/>
<path d="M9.88281 6.12891H9.96094C10.026 6.46094 10.1042 6.76693 10.1953 7.04688C10.2799 7.32031 10.3385 7.61979 10.3711 7.94531C10.3711 8.04948 10.3678 8.1276 10.3613 8.17969C10.3548 8.23177 10.3581 8.3099 10.3711 8.41406V8.64844C10.3711 8.7526 10.3613 8.85026 10.3418 8.94141C10.3223 9.02604 10.3125 9.1237 10.3125 9.23438C10.306 9.46224 10.2669 9.6901 10.1953 9.91797C10.1823 10.0677 10.1693 10.1361 10.1562 10.123C10.1432 10.11 10.1367 10.1198 10.1367 10.1523C10.1107 10.2956 10.0911 10.4323 10.0781 10.5625C10.0716 10.6862 10.0521 10.8229 10.0195 10.9727C10.2539 10.9987 10.5241 11.028 10.8301 11.0605C11.1361 11.0931 11.4258 11.0964 11.6992 11.0703C11.7643 11.0638 11.8262 11.0443 11.8848 11.0117C11.9173 10.9987 11.9466 10.9857 11.9727 10.9727C12.0052 10.9596 12.0378 10.9466 12.0703 10.9336C12.3047 10.901 12.4805 10.849 12.5977 10.7773C12.7344 10.6927 12.8906 10.6276 13.0664 10.582C13.0208 10.7188 12.9557 10.8034 12.8711 10.8359C12.8385 10.9531 12.8027 11.041 12.7637 11.0996C12.7441 11.1322 12.7083 11.168 12.6562 11.207C12.6237 11.2331 12.5911 11.2591 12.5586 11.2852C12.5326 11.3047 12.5065 11.321 12.4805 11.334C12.4544 11.347 12.4251 11.3665 12.3926 11.3926C12.3665 11.4121 12.3372 11.4349 12.3047 11.4609C12.1094 11.5716 11.9434 11.6335 11.8066 11.6465C11.6764 11.6595 11.5625 11.6823 11.4648 11.7148C11.3737 11.7018 11.2663 11.6888 11.1426 11.6758C11.0189 11.6628 10.9115 11.6628 10.8203 11.6758C10.7552 11.6367 10.6836 11.6172 10.6055 11.6172C10.5208 11.6172 10.4427 11.6302 10.3711 11.6562C10.2344 11.6953 10.1302 11.7311 10.0586 11.7637C10.0326 11.7702 10.0065 11.7799 9.98047 11.793C9.95443 11.806 9.92839 11.819 9.90234 11.832C9.88932 11.8711 9.87956 11.9069 9.87305 11.9395C9.86654 11.9655 9.86003 11.9883 9.85352 12.0078L9.82422 12.1055C9.81771 12.1771 9.8112 12.2487 9.80469 12.3203C9.80469 12.3854 9.80143 12.4538 9.79492 12.5254C9.7819 12.6751 9.75911 12.8151 9.72656 12.9453C9.67448 13.069 9.64844 13.1439 9.64844 13.1699C9.64844 13.209 9.63542 13.2513 9.60938 13.2969C9.57031 13.362 9.53776 13.4401 9.51172 13.5312C9.48568 13.6224 9.45964 13.7135 9.43359 13.8047C9.36849 13.8698 9.32943 13.9479 9.31641 14.0391C9.30339 14.1302 9.29036 14.2279 9.27734 14.332C9.26432 14.4362 9.23177 14.5371 9.17969 14.6348C9.1276 14.7324 9.07552 14.8268 9.02344 14.918C8.9974 14.9831 8.97135 15.0449 8.94531 15.1035C8.91927 15.1621 8.88672 15.224 8.84766 15.2891C8.69792 15.4779 8.54818 15.6862 8.39844 15.9141C8.33333 16.0573 8.26497 16.1842 8.19336 16.2949C8.16081 16.347 8.125 16.4056 8.08594 16.4707C8.05339 16.5293 8.02083 16.5911 7.98828 16.6562C7.88411 16.8385 7.75391 16.998 7.59766 17.1348C7.51953 17.1999 7.44141 17.2682 7.36328 17.3398C7.28516 17.4115 7.20703 17.4831 7.12891 17.5547C7.05078 17.6198 6.97266 17.6914 6.89453 17.7695C6.81641 17.8477 6.74479 17.9193 6.67969 17.9844L6.26953 18.3945C6.22396 18.4271 6.17839 18.4629 6.13281 18.502C6.08724 18.5345 6.03841 18.5671 5.98633 18.5996C5.94076 18.6322 5.89193 18.668 5.83984 18.707C5.78776 18.7396 5.73568 18.7721 5.68359 18.8047C5.57943 18.8633 5.47526 18.9219 5.37109 18.9805C5.27344 19.0326 5.17253 19.0846 5.06836 19.1367C4.96419 19.1888 4.86003 19.2441 4.75586 19.3027C4.65169 19.3613 4.54427 19.4232 4.43359 19.4883L4.14062 19.6738C4.05599 19.7324 3.95833 19.7812 3.84766 19.8203C3.79557 19.8398 3.71419 19.8561 3.60352 19.8691L3.35938 19.8984C3.25521 19.9245 3.15755 19.9473 3.06641 19.9668C2.97526 19.9863 2.87109 19.9961 2.75391 19.9961C2.61068 19.9831 2.45117 19.9538 2.27539 19.9082C2.09961 19.8626 1.96615 19.8073 1.875 19.7422C1.69271 19.5729 1.5918 19.4622 1.57227 19.4102C1.54622 19.3516 1.4974 19.2865 1.42578 19.2148C1.41927 19.1628 1.40299 19.127 1.37695 19.1074C1.35742 19.0879 1.34766 19.0521 1.34766 19C1.25 18.8568 1.17839 18.7266 1.13281 18.6094C1.01562 18.362 0.934245 18.1439 0.888672 17.9551C0.843099 17.7663 0.833333 17.5677 0.859375 17.3594C0.833333 17.1771 0.820312 16.9395 0.820312 16.6465V15.875C0.820312 15.8294 0.820312 15.7871 0.820312 15.748C0.820312 15.7025 0.817057 15.6569 0.810547 15.6113C0.804036 15.5267 0.813802 15.4518 0.839844 15.3867C0.826823 15.2826 0.817057 15.1816 0.810547 15.084C0.804036 14.9863 0.813802 14.8984 0.839844 14.8203L0.869141 14.5273C0.882161 14.4427 0.898438 14.3776 0.917969 14.332C0.983073 14.2669 1.01237 14.2018 1.00586 14.1367C0.999349 14.0716 1.00911 14.0065 1.03516 13.9414C1.08073 13.6029 1.16536 13.2904 1.28906 13.0039L1.40625 12.7012C1.4388 12.623 1.47135 12.5221 1.50391 12.3984C1.57552 12.1901 1.66341 11.9883 1.76758 11.793C1.81966 11.7018 1.86849 11.6074 1.91406 11.5098C1.95964 11.4121 2.00521 11.3112 2.05078 11.207C2.24609 10.8099 2.43815 10.4616 2.62695 10.1621C2.73112 9.99935 2.83203 9.83659 2.92969 9.67383C3.03385 9.51107 3.13802 9.34505 3.24219 9.17578C3.30078 9.14323 3.34635 9.08789 3.37891 9.00977C3.41146 8.93815 3.45052 8.88281 3.49609 8.84375C3.60677 8.60938 3.73047 8.42057 3.86719 8.27734L4.29688 7.80859C4.35547 7.76302 4.41406 7.70768 4.47266 7.64258C4.50521 7.60352 4.5638 7.54167 4.64844 7.45703C4.70052 7.40495 4.74284 7.36914 4.77539 7.34961C4.80794 7.33008 4.84375 7.28776 4.88281 7.22266C4.9349 7.19661 4.98372 7.16406 5.0293 7.125C5.07487 7.08594 5.11719 7.04688 5.15625 7.00781L5.46875 6.77344C5.56641 6.70182 5.66081 6.62044 5.75195 6.5293C5.83659 6.44466 5.93099 6.36979 6.03516 6.30469L6.23047 6.28516C6.25651 6.28516 6.26953 6.26562 6.26953 6.22656C6.40625 6.11589 6.50716 6.02148 6.57227 5.94336C6.61784 5.89128 6.66016 5.82943 6.69922 5.75781C6.8099 5.6862 6.90104 5.61133 6.97266 5.5332C7.04427 5.45508 7.13542 5.38021 7.24609 5.30859C7.28516 5.26302 7.31771 5.22721 7.34375 5.20117C7.3763 5.16862 7.39909 5.14583 7.41211 5.13281C7.42513 5.11979 7.44141 5.10677 7.46094 5.09375C7.48047 5.08073 7.5 5.06771 7.51953 5.05469C7.55208 5.01562 7.58138 4.98633 7.60742 4.9668C7.64648 4.94076 7.66927 4.91797 7.67578 4.89844C7.7474 4.86589 7.80599 4.83659 7.85156 4.81055C7.89714 4.78451 7.96224 4.75521 8.04688 4.72266C8.13802 4.73568 8.21289 4.73568 8.27148 4.72266C8.33008 4.70964 8.38542 4.70964 8.4375 4.72266C8.50911 4.72917 8.57096 4.75846 8.62305 4.81055C8.68815 4.87565 8.74349 4.92448 8.78906 4.95703C8.94531 4.98307 9.06576 5.06445 9.15039 5.20117C9.24154 5.33789 9.33594 5.4388 9.43359 5.50391C9.51172 5.6276 9.58659 5.72852 9.6582 5.80664C9.72982 5.88477 9.80469 5.99219 9.88281 6.12891ZM8.4375 9.85938C8.5026 9.95052 8.58073 10.0319 8.67188 10.1035C8.76302 10.1751 8.85417 10.2435 8.94531 10.3086C8.94531 10.1393 8.94857 9.96354 8.95508 9.78125C8.9681 9.59896 8.98112 9.4069 8.99414 9.20508C9.00716 9.00326 9.01367 8.8112 9.01367 8.62891C9.02018 8.44661 9.01693 8.27083 9.00391 8.10156C8.98438 8.02995 8.96484 7.96159 8.94531 7.89648C8.92578 7.82487 8.90299 7.75651 8.87695 7.69141C8.85091 7.6263 8.82812 7.55794 8.80859 7.48633C8.79557 7.41471 8.78255 7.33984 8.76953 7.26172C8.71745 7.20964 8.68164 7.15755 8.66211 7.10547C8.6556 7.07943 8.64583 7.05339 8.63281 7.02734C8.61979 7.0013 8.60677 6.97526 8.59375 6.94922C8.52865 6.8776 8.49609 6.82878 8.49609 6.80273C8.49609 6.7832 8.48307 6.76042 8.45703 6.73438L8.36914 6.65625C8.33008 6.61719 8.30078 6.58464 8.28125 6.55859C8.125 6.54557 7.99805 6.57487 7.90039 6.64648C7.85482 6.67904 7.80599 6.71484 7.75391 6.75391C7.70833 6.78646 7.66276 6.81901 7.61719 6.85156C7.59115 7.03385 7.58464 7.20312 7.59766 7.35938C7.61068 7.51562 7.63021 7.66536 7.65625 7.80859C7.69531 8.05599 7.73438 8.30339 7.77344 8.55078C7.8125 8.79818 7.8776 9.01302 7.96875 9.19531C7.98177 9.28646 8.03385 9.39388 8.125 9.51758C8.21615 9.64128 8.32031 9.75521 8.4375 9.85938ZM5.82031 8.16016C5.73568 8.24479 5.67057 8.30339 5.625 8.33594C5.5599 8.38151 5.5013 8.44661 5.44922 8.53125C5.41016 8.5638 5.37435 8.59635 5.3418 8.62891C5.30924 8.66146 5.27995 8.69401 5.25391 8.72656C5.22135 8.77214 5.16276 8.83724 5.07812 8.92188C4.94141 9.05859 4.83073 9.1888 4.74609 9.3125C4.70703 9.33854 4.67448 9.37109 4.64844 9.41016C4.60938 9.46224 4.57682 9.5013 4.55078 9.52734C4.48568 9.61198 4.43034 9.68359 4.38477 9.74219C4.33919 9.80078 4.30339 9.84635 4.27734 9.87891C4.21875 9.95703 4.17969 10.0221 4.16016 10.0742C4.08203 10.1263 4.02018 10.1947 3.97461 10.2793C3.92904 10.3639 3.88672 10.4518 3.84766 10.543C3.76953 10.6471 3.69792 10.7578 3.63281 10.875C3.56771 10.9922 3.50911 11.1094 3.45703 11.2266C3.35286 11.4089 3.29102 11.5326 3.27148 11.5977C3.25195 11.6693 3.22917 11.7344 3.20312 11.793C3.15104 11.8776 3.10547 11.9818 3.06641 12.1055C2.84505 12.5677 2.64974 13.1016 2.48047 13.707C2.46745 13.7656 2.45117 13.8242 2.43164 13.8828C2.41862 13.9349 2.39909 13.987 2.37305 14.0391C2.32096 14.1497 2.29167 14.2539 2.28516 14.3516C2.27214 14.4167 2.26888 14.4688 2.27539 14.5078C2.2819 14.5404 2.28516 14.5924 2.28516 14.6641C2.27865 14.7292 2.27214 14.7943 2.26562 14.8594C2.25911 14.918 2.2526 14.9798 2.24609 15.0449C2.23958 15.11 2.23307 15.1751 2.22656 15.2402C2.22656 15.3053 2.22656 15.3737 2.22656 15.4453V16.168C2.22656 16.4154 2.23958 16.6432 2.26562 16.8516C2.26562 17.0273 2.27865 17.1641 2.30469 17.2617C2.33073 17.3138 2.3763 17.3659 2.44141 17.418C2.50651 17.4701 2.5651 17.5156 2.61719 17.5547L2.92969 17.877C3.04036 17.9876 3.18359 18.0104 3.35938 17.9453C3.42448 17.9844 3.49609 17.9844 3.57422 17.9453C3.65885 17.9062 3.73698 17.8997 3.80859 17.9258C3.86068 17.9062 3.92578 17.89 4.00391 17.877C4.08854 17.8639 4.15365 17.8477 4.19922 17.8281L4.50195 17.7402C4.55404 17.7272 4.60286 17.7142 4.64844 17.7012C4.69401 17.6816 4.73958 17.6654 4.78516 17.6523C4.83724 17.6328 4.88932 17.6133 4.94141 17.5938C4.99349 17.5742 5.04557 17.5579 5.09766 17.5449C5.18229 17.5189 5.27995 17.4766 5.39062 17.418C5.63802 17.2031 5.82682 17.0273 5.95703 16.8906C6.05469 16.793 6.14583 16.7116 6.23047 16.6465C6.32161 16.5749 6.40625 16.5 6.48438 16.4219C6.54948 16.3568 6.61458 16.2884 6.67969 16.2168C6.74479 16.1452 6.80339 16.0573 6.85547 15.9531C6.9401 15.8685 7.00521 15.7773 7.05078 15.6797C7.11589 15.6016 7.16471 15.5169 7.19727 15.4258C7.22982 15.3281 7.27865 15.237 7.34375 15.1523C7.42188 14.918 7.51302 14.7096 7.61719 14.5273C7.66927 14.4297 7.71484 14.332 7.75391 14.2344C7.79948 14.1302 7.83854 14.026 7.87109 13.9219C7.98828 13.6745 8.08919 13.4564 8.17383 13.2676C8.25846 13.0788 8.32031 12.8867 8.35938 12.6914C8.39193 12.6589 8.41471 12.61 8.42773 12.5449C8.44076 12.4733 8.45703 12.4245 8.47656 12.3984C8.54167 12.2161 8.59701 12.0404 8.64258 11.8711C8.68815 11.7018 8.73698 11.513 8.78906 11.3047C8.73698 11.2721 8.69141 11.2624 8.65234 11.2754C8.61328 11.2819 8.57422 11.2721 8.53516 11.2461C8.4375 11.2135 8.3431 11.1452 8.25195 11.041C8.16081 10.9368 8.06641 10.8815 7.96875 10.875C7.94271 10.8555 7.91667 10.8392 7.89062 10.8262C7.87109 10.8066 7.85482 10.7904 7.8418 10.7773C7.82878 10.7643 7.80924 10.7513 7.7832 10.7383C7.76367 10.7253 7.74089 10.7122 7.71484 10.6992C7.50651 10.4779 7.30794 10.2467 7.11914 10.0059C6.93034 9.76497 6.77734 9.49479 6.66016 9.19531C6.54297 8.9349 6.45182 8.69076 6.38672 8.46289C6.32161 8.23503 6.26302 7.99089 6.21094 7.73047C6.0612 7.88021 5.93099 8.02344 5.82031 8.16016ZM12.3242 16.5977C12.4284 16.5326 12.513 16.4479 12.5781 16.3438C12.6107 16.2917 12.6465 16.2396 12.6855 16.1875C12.7246 16.1354 12.7669 16.0833 12.8125 16.0312C12.9818 15.8359 13.1641 15.6732 13.3594 15.543C13.4505 15.4062 13.5645 15.3053 13.7012 15.2402C13.8379 15.1686 13.9453 15.0612 14.0234 14.918C14.043 14.8919 14.0658 14.8529 14.0918 14.8008C14.1178 14.7487 14.1406 14.7096 14.1602 14.6836C14.4076 14.3385 14.6745 14.0521 14.9609 13.8242C15 13.7917 15.0391 13.7591 15.0781 13.7266C15.1172 13.694 15.153 13.6615 15.1855 13.6289C15.2376 13.5768 15.3255 13.5117 15.4492 13.4336C15.5078 13.401 15.5664 13.3652 15.625 13.3262C15.6836 13.2806 15.7389 13.2318 15.791 13.1797C15.8952 13.0755 16.0156 12.9974 16.1523 12.9453C16.237 12.9062 16.3216 12.877 16.4062 12.8574C16.4453 12.8444 16.4844 12.8346 16.5234 12.8281C16.569 12.8151 16.6146 12.8021 16.6602 12.7891C16.7513 12.763 16.8327 12.7402 16.9043 12.7207C16.9759 12.7012 17.0573 12.7044 17.1484 12.7305C17.3568 12.8151 17.513 12.9909 17.6172 13.2578C17.6562 13.3555 17.6335 13.5605 17.5488 13.873C17.4707 14.1855 17.3763 14.5111 17.2656 14.8496C17.1549 15.1816 17.0768 15.4388 17.0312 15.6211C17.0052 15.7188 16.9987 15.7741 17.0117 15.7871C17.0247 15.8001 17.0312 15.8164 17.0312 15.8359C17.0052 15.901 16.9857 15.9596 16.9727 16.0117C16.9596 16.0638 16.9466 16.1224 16.9336 16.1875C16.9076 16.2917 16.888 16.4316 16.875 16.6074C16.862 16.7832 16.8685 16.9232 16.8945 17.0273C17.0247 17.0208 17.0996 17.0078 17.1191 16.9883C17.1322 16.9753 17.1484 16.9688 17.168 16.9688C17.2201 16.9557 17.2624 16.9525 17.2949 16.959C17.3275 16.9655 17.3698 16.9622 17.4219 16.9492C17.6888 16.8776 17.9297 16.7344 18.1445 16.5195C18.2617 16.4674 18.3724 16.4154 18.4766 16.3633C18.5872 16.3112 18.6914 16.2591 18.7891 16.207C18.9714 16.0768 19.1178 15.9824 19.2285 15.9238C19.3392 15.8652 19.5052 15.7839 19.7266 15.6797C19.8112 15.582 19.9251 15.5007 20.0684 15.4355C20.1986 15.377 20.3255 15.2956 20.4492 15.1914C20.4883 15.1523 20.5208 15.1165 20.5469 15.084C20.5859 15.0319 20.625 15.0221 20.6641 15.0547C20.7292 15.1198 20.7715 15.1882 20.791 15.2598C20.8105 15.3314 20.8138 15.3802 20.8008 15.4062C20.7031 15.5039 20.6478 15.582 20.6348 15.6406C20.6217 15.6992 20.6055 15.7383 20.5859 15.7578C20.5208 15.8229 20.4232 15.8815 20.293 15.9336C20.1823 15.9792 20.1139 16.0215 20.0879 16.0605C20.0618 16.0996 20.0391 16.1289 20.0195 16.1484C19.9805 16.1875 19.9447 16.2168 19.9121 16.2363C19.8796 16.2559 19.8438 16.2852 19.8047 16.3242C19.7786 16.3633 19.7428 16.3861 19.6973 16.3926L19.5703 16.4219C19.4922 16.487 19.4271 16.5456 19.375 16.5977C19.3229 16.6497 19.2643 16.7083 19.1992 16.7734C19.1016 16.8711 19.0365 16.946 19.0039 16.998C18.9779 17.0436 18.9062 17.1055 18.7891 17.1836L18.3984 17.418C18.2161 17.5091 18.0339 17.6198 17.8516 17.75C17.6693 17.8802 17.487 18.0104 17.3047 18.1406C17.1875 18.2122 17.054 18.2806 16.9043 18.3457C16.7676 18.4043 16.6406 18.4727 16.5234 18.5508C16.4648 18.5508 16.429 18.5475 16.416 18.541C16.3965 18.528 16.3607 18.5378 16.3086 18.5703C16.2435 18.5378 16.1784 18.5345 16.1133 18.5605C16.0417 18.5931 15.9766 18.5964 15.918 18.5703C15.8529 18.5182 15.7975 18.4759 15.752 18.4434C15.7129 18.4108 15.6803 18.388 15.6543 18.375C15.6152 18.349 15.5794 18.3164 15.5469 18.2773C15.5208 18.2122 15.5111 18.1406 15.5176 18.0625C15.5241 17.9844 15.5078 17.9193 15.4688 17.8672C15.4688 17.5807 15.4785 17.3073 15.498 17.0469C15.5176 16.7865 15.5599 16.513 15.625 16.2266C15.638 16.1354 15.6706 15.9792 15.7227 15.7578C15.7747 15.5299 15.8171 15.3118 15.8496 15.1035C15.8822 14.8952 15.8724 14.7747 15.8203 14.7422C15.6771 14.8203 15.5306 14.9375 15.3809 15.0938C15.3092 15.1719 15.2376 15.2435 15.166 15.3086C15.0944 15.3737 15.026 15.4323 14.9609 15.4844L14.6582 15.6992C14.6126 15.7318 14.5638 15.7676 14.5117 15.8066C14.4596 15.8392 14.4076 15.875 14.3555 15.9141C14.2643 15.9792 14.1862 16.0443 14.1211 16.1094C14.056 16.1745 13.9844 16.2526 13.9062 16.3438C13.8607 16.3893 13.8151 16.4349 13.7695 16.4805C13.7305 16.5195 13.6914 16.5618 13.6523 16.6074C13.5742 16.6921 13.4831 16.7734 13.3789 16.8516C13.3138 16.9167 13.265 16.959 13.2324 16.9785C13.1999 16.998 13.1576 17.0339 13.1055 17.0859L12.9199 17.2715C12.8613 17.3301 12.7865 17.3789 12.6953 17.418C12.487 17.6979 12.2526 17.9681 11.9922 18.2285C11.7383 18.4889 11.5365 18.7526 11.3867 19.0195C11.2305 19.1497 11.0645 19.2637 10.8887 19.3613C10.7129 19.459 10.5013 19.4688 10.2539 19.3906C10.1237 19.3125 10.0391 19.2474 10 19.1953C9.96094 19.1497 9.91536 19.1107 9.86328 19.0781C9.8763 18.9349 9.88932 18.7982 9.90234 18.668C9.91536 18.5378 9.95443 18.401 10.0195 18.2578L10.1367 18.0625C10.2018 17.9518 10.2441 17.8216 10.2637 17.6719C10.2832 17.5156 10.3255 17.3789 10.3906 17.2617C10.4688 17.1315 10.5176 17.0241 10.5371 16.9395C10.5566 16.8613 10.5859 16.7865 10.625 16.7148C10.6576 16.6367 10.6934 16.5749 10.7324 16.5293C10.7715 16.4837 10.8073 16.4219 10.8398 16.3438C10.8724 16.2721 10.918 16.1973 10.9766 16.1191C11.0352 16.041 11.0807 15.9661 11.1133 15.8945C11.1914 15.6146 11.2956 15.3281 11.4258 15.0352C11.4518 14.944 11.4779 14.8561 11.5039 14.7715C11.5299 14.6868 11.5625 14.6055 11.6016 14.5273C11.6341 14.4557 11.6667 14.3841 11.6992 14.3125C11.7318 14.2409 11.7643 14.1725 11.7969 14.1074C11.8294 14.0358 11.862 13.9674 11.8945 13.9023C11.9271 13.8307 11.9596 13.7591 11.9922 13.6875C12.0312 13.6094 12.0671 13.541 12.0996 13.4824C12.1322 13.4238 12.1745 13.362 12.2266 13.2969C12.2461 13.2643 12.2656 13.2318 12.2852 13.1992C12.3047 13.1667 12.321 13.1341 12.334 13.1016C12.347 13.069 12.3633 13.0365 12.3828 13.0039C12.4023 12.9714 12.4219 12.9388 12.4414 12.9062C12.4609 12.8737 12.4805 12.8411 12.5 12.8086C12.5195 12.7695 12.5358 12.7272 12.5488 12.6816C12.5749 12.597 12.6237 12.5156 12.6953 12.4375C12.7409 12.3854 12.7799 12.3366 12.8125 12.291C12.8516 12.2389 12.8841 12.1901 12.9102 12.1445C12.9557 12.0599 13.0404 12.0013 13.1641 11.9688C13.2747 12.0208 13.3887 12.0013 13.5059 11.9102C13.6296 11.8125 13.7305 11.819 13.8086 11.9297C13.9909 12.0469 14.1146 12.138 14.1797 12.2031C14.2578 12.2747 14.3099 12.3464 14.3359 12.418C14.401 12.5352 14.4076 12.6556 14.3555 12.7793C14.3034 12.903 14.2122 13.0104 14.082 13.1016C14.0365 13.3034 13.9453 13.5117 13.8086 13.7266C13.7435 13.8242 13.6816 13.9219 13.623 14.0195C13.5645 14.1107 13.5091 14.2018 13.457 14.293L13.3008 14.6836C13.2227 14.8659 13.1413 15.0482 13.0566 15.2305C12.972 15.4128 12.8776 15.5885 12.7734 15.7578C12.6888 15.9336 12.6237 16.0475 12.5781 16.0996C12.5391 16.1517 12.5033 16.2038 12.4707 16.2559C12.4447 16.3014 12.3958 16.4154 12.3242 16.5977ZM25.5859 14.3906C25.7161 14.4232 25.8105 14.4688 25.8691 14.5273C25.9147 14.5729 25.9375 14.625 25.9375 14.6836C25.8333 14.8268 25.7715 14.9212 25.752 14.9668C25.7324 15.0124 25.6901 15.0482 25.625 15.0742C25.5404 15.2044 25.4492 15.3281 25.3516 15.4453C25.2604 15.556 25.1595 15.6634 25.0488 15.7676C24.847 15.9629 24.6484 16.1875 24.4531 16.4414C24.3685 16.526 24.3099 16.5911 24.2773 16.6367C24.2448 16.6823 24.1862 16.7474 24.1016 16.832C23.9453 16.9427 23.8151 17.0566 23.7109 17.1738C23.6523 17.2389 23.5905 17.3008 23.5254 17.3594C23.4668 17.4115 23.4049 17.4635 23.3398 17.5156C23.3073 17.5417 23.2747 17.5677 23.2422 17.5938C23.2161 17.6133 23.1868 17.6361 23.1543 17.6621C23.1283 17.6882 23.099 17.7142 23.0664 17.7402C23.0339 17.7663 23.0013 17.7956 22.9688 17.8281C22.9167 17.8802 22.8581 17.9323 22.793 17.9844C22.7669 18.0039 22.7376 18.0267 22.7051 18.0527C22.679 18.0723 22.6497 18.0951 22.6172 18.1211C22.5391 18.2122 22.4609 18.3034 22.3828 18.3945C22.3047 18.4857 22.2266 18.5833 22.1484 18.6875C22.0117 18.7526 21.8815 18.8307 21.7578 18.9219C21.6406 19.0065 21.5039 19.0846 21.3477 19.1562C21.2826 19.1953 21.2207 19.2572 21.1621 19.3418C21.11 19.4199 21.0352 19.4753 20.9375 19.5078C20.8333 19.5469 20.7227 19.5566 20.6055 19.5371C20.4883 19.5176 20.3906 19.4883 20.3125 19.4492C20.2279 19.3906 20.1758 19.3581 20.1562 19.3516C20.1042 19.3385 20.0716 19.332 20.0586 19.332C19.9349 19.1562 19.8503 18.9707 19.8047 18.7754C19.7786 18.6712 19.7493 18.5671 19.7168 18.4629C19.6908 18.3587 19.6615 18.2513 19.6289 18.1406C19.6029 18.0755 19.5833 18.0072 19.5703 17.9355C19.5573 17.8639 19.5443 17.7826 19.5312 17.6914L19.502 17.5352C19.4954 17.5091 19.4889 17.4831 19.4824 17.457C19.4759 17.4245 19.4661 17.3919 19.4531 17.3594C19.4271 17.2943 19.401 17.2259 19.375 17.1543C19.349 17.0827 19.3294 17.0078 19.3164 16.9297C19.2904 16.7734 19.2806 16.6204 19.2871 16.4707C19.2936 16.321 19.3099 16.1745 19.3359 16.0312C19.4141 15.6016 19.528 15.1914 19.6777 14.8008C19.8275 14.4102 19.9805 14.0391 20.1367 13.6875C20.1693 13.5247 20.2051 13.401 20.2441 13.3164C20.2832 13.2318 20.3255 13.1146 20.3711 12.9648C20.4297 12.8932 20.4753 12.7891 20.5078 12.6523C20.5208 12.5938 20.5339 12.5352 20.5469 12.4766C20.5664 12.418 20.5859 12.3594 20.6055 12.3008C20.625 12.2487 20.6478 12.1966 20.6738 12.1445C20.6999 12.0859 20.7259 12.0241 20.752 11.959C20.804 11.8418 20.8464 11.7214 20.8789 11.5977C20.9245 11.4479 20.9603 11.3177 20.9863 11.207C20.9993 11.1419 21.0156 11.0801 21.0352 11.0215C21.0612 10.9629 21.0872 10.9076 21.1133 10.8555C21.1654 10.7188 21.2142 10.5853 21.2598 10.4551C21.3118 10.3249 21.3607 10.1979 21.4062 10.0742C21.4518 9.95052 21.4974 9.82682 21.543 9.70312C21.5951 9.57943 21.6471 9.45573 21.6992 9.33203C21.7122 9.29297 21.7253 9.25391 21.7383 9.21484C21.7513 9.17578 21.7643 9.13672 21.7773 9.09766C21.8034 9.02604 21.8424 8.95443 21.8945 8.88281C21.9271 8.79167 21.9596 8.72331 21.9922 8.67773C22.0443 8.59961 22.0833 8.53776 22.1094 8.49219C22.1094 8.42057 22.1322 8.37174 22.1777 8.3457C22.2103 8.32617 22.2461 8.28385 22.2852 8.21875C22.3568 8.10807 22.4056 8.00391 22.4316 7.90625C22.4577 7.80859 22.5065 7.70443 22.5781 7.59375L22.8125 7.30078C22.8255 7.27474 22.8385 7.2487 22.8516 7.22266C22.8646 7.19661 22.8776 7.17057 22.8906 7.14453C22.9232 7.09245 22.9622 7.04688 23.0078 7.00781C23.1576 6.77344 23.3138 6.53906 23.4766 6.30469L24.0039 5.5625C24.1211 5.38021 24.2513 5.20768 24.3945 5.04492C24.5378 4.88216 24.6875 4.72266 24.8438 4.56641C24.8958 4.5013 24.9577 4.42969 25.0293 4.35156C25.1009 4.27344 25.1758 4.22786 25.2539 4.21484C25.3776 4.20182 25.5078 4.21484 25.6445 4.25391C25.6836 4.31901 25.7194 4.38737 25.752 4.45898C25.7845 4.5306 25.8138 4.61198 25.8398 4.70312C25.8659 5.10677 25.8529 5.4974 25.8008 5.875C25.7487 6.2526 25.6901 6.6237 25.625 6.98828C25.612 7.07292 25.6087 7.13477 25.6152 7.17383C25.6217 7.21289 25.6185 7.27474 25.6055 7.35938C25.5794 7.4375 25.5469 7.53841 25.5078 7.66211C25.4688 7.78581 25.4362 7.89974 25.4102 8.00391C25.4102 8.17969 25.3711 8.34245 25.293 8.49219C25.2148 8.63542 25.1628 8.77865 25.1367 8.92188C25.0977 8.94792 25.0749 8.99023 25.0684 9.04883C25.0618 9.10742 25.0391 9.14974 25 9.17578C24.9674 9.32552 24.9251 9.45573 24.873 9.56641C24.8145 9.68359 24.7656 9.80078 24.7266 9.91797C24.6289 10.0547 24.5312 10.1882 24.4336 10.3184C24.3359 10.4486 24.235 10.5788 24.1309 10.709C24.0267 10.8327 23.9258 10.9629 23.8281 11.0996C23.737 11.2298 23.6458 11.3633 23.5547 11.5C23.3268 11.8451 23.0892 12.1706 22.8418 12.4766C22.5944 12.7826 22.3568 13.1081 22.1289 13.4531C21.9466 13.6159 21.8034 13.7786 21.6992 13.9414C21.5885 14.1172 21.4388 14.2799 21.25 14.4297C21.2174 14.5599 21.1849 14.6966 21.1523 14.8398C21.1263 14.9831 21.097 15.1296 21.0645 15.2793C21.0384 15.429 21.0091 15.582 20.9766 15.7383C20.944 15.8945 20.9115 16.0508 20.8789 16.207C20.8724 16.2917 20.8529 16.3796 20.8203 16.4707C20.8073 16.5163 20.7943 16.5618 20.7812 16.6074C20.7682 16.6465 20.7552 16.6888 20.7422 16.7344C20.7161 16.8255 20.7096 16.9362 20.7227 17.0664C20.7292 17.1836 20.7096 17.2943 20.6641 17.3984C20.6836 17.4505 20.6999 17.5254 20.7129 17.623C20.7194 17.7077 20.7422 17.7826 20.7812 17.8477C20.8529 17.9648 20.931 18.0234 21.0156 18.0234C21.1133 17.9714 21.1654 17.9486 21.1719 17.9551C21.1784 17.9616 21.1979 17.9583 21.2305 17.9453C21.2956 17.9062 21.3607 17.8542 21.4258 17.7891C21.4909 17.724 21.5495 17.6654 21.6016 17.6133C21.6732 17.5807 21.722 17.5514 21.748 17.5254C21.7676 17.5059 21.8034 17.4766 21.8555 17.4375C21.8945 17.4115 21.9303 17.3919 21.9629 17.3789C21.9954 17.3659 22.0247 17.3464 22.0508 17.3203C22.2396 17.125 22.4154 16.9785 22.5781 16.8809C22.7474 16.7832 22.8841 16.6628 22.9883 16.5195L23.3398 16.3047C23.4115 16.2656 23.4798 16.2103 23.5449 16.1387C23.6035 16.0671 23.6784 16.0117 23.7695 15.9727C23.8086 15.9206 23.8346 15.888 23.8477 15.875C23.8607 15.862 23.8867 15.8294 23.9258 15.7773C24.0039 15.7253 24.082 15.6732 24.1602 15.6211C24.2383 15.569 24.3132 15.5169 24.3848 15.4648C24.4564 15.4128 24.5312 15.3607 24.6094 15.3086C24.694 15.2565 24.7786 15.2044 24.8633 15.1523C24.8893 15.0872 24.9316 15.0352 24.9902 14.9961C25.0488 14.957 25.0977 14.918 25.1367 14.8789C25.1758 14.8398 25.2083 14.7975 25.2344 14.752C25.2669 14.6999 25.3125 14.6706 25.3711 14.6641C25.3776 14.6055 25.4069 14.5599 25.459 14.5273C25.5111 14.4948 25.5534 14.4492 25.5859 14.3906ZM24.5312 7.10547H24.5117C24.3945 7.13151 24.3132 7.1901 24.2676 7.28125C24.222 7.3724 24.1797 7.47656 24.1406 7.59375C24.1146 7.64583 24.0885 7.69141 24.0625 7.73047C24.043 7.76953 24.0267 7.80208 24.0137 7.82812C23.9876 7.8737 23.9779 7.95182 23.9844 8.0625C23.7826 8.39453 23.5905 8.73633 23.4082 9.08789C23.2259 9.43294 23.0501 9.78776 22.8809 10.1523C22.7181 10.5169 22.5521 10.8848 22.3828 11.2559C22.2135 11.6204 22.0443 11.9883 21.875 12.3594C22.1419 12.0924 22.3861 11.7799 22.6074 11.4219C22.7181 11.2396 22.832 11.0703 22.9492 10.9141C23.0729 10.7578 23.1966 10.6146 23.3203 10.4844C23.4115 10.263 23.5059 10.0482 23.6035 9.83984C23.7077 9.63151 23.8151 9.43294 23.9258 9.24414C24.1406 8.87956 24.3099 8.44661 24.4336 7.94531C24.3815 7.78255 24.388 7.64258 24.4531 7.52539C24.5182 7.4082 24.5443 7.26823 24.5312 7.10547ZM25.9766 17.457C26.1003 17.4831 26.2174 17.4505 26.3281 17.3594C26.4453 17.2617 26.556 17.1836 26.6602 17.125C26.7122 17.0599 26.7741 16.9915 26.8457 16.9199C26.9173 16.8483 26.9922 16.7865 27.0703 16.7344C27.1615 16.6172 27.2559 16.5033 27.3535 16.3926C27.4577 16.2819 27.5651 16.1745 27.6758 16.0703C27.7279 16.0052 27.7799 15.9434 27.832 15.8848C27.8841 15.8197 27.9362 15.7578 27.9883 15.6992C28.0404 15.6406 28.0924 15.582 28.1445 15.5234C28.1966 15.4583 28.2487 15.3932 28.3008 15.3281C28.3529 15.2565 28.4049 15.1719 28.457 15.0742C28.4766 15.0352 28.4961 14.9961 28.5156 14.957C28.5417 14.918 28.5677 14.8789 28.5938 14.8398C28.6654 14.7227 28.7402 14.6185 28.8184 14.5273C28.903 14.4232 28.9648 14.2995 29.0039 14.1562C29.056 14.0716 29.1243 14.0065 29.209 13.9609C29.2936 13.9154 29.362 13.8503 29.4141 13.7656C29.4466 13.7266 29.4792 13.668 29.5117 13.5898C29.5378 13.5247 29.5768 13.4727 29.6289 13.4336C29.681 13.3945 29.7103 13.362 29.7168 13.3359C29.7298 13.3034 29.7461 13.2773 29.7656 13.2578C29.8047 13.1862 29.8535 13.1276 29.9121 13.082C29.9772 13.0234 30.0326 12.9648 30.0781 12.9062C30.2409 12.776 30.3581 12.6751 30.4297 12.6035C30.5013 12.5319 30.599 12.457 30.7227 12.3789C30.957 12.3008 31.1947 12.2747 31.4355 12.3008C31.6764 12.3268 31.849 12.4115 31.9531 12.5547C31.9596 12.6393 31.9694 12.724 31.9824 12.8086C31.9954 12.8867 32.0085 12.9616 32.0215 13.0332C32.054 13.1895 32.0312 13.3815 31.9531 13.6094C31.901 13.7396 31.8359 13.8698 31.7578 14C31.6862 14.1172 31.6276 14.2474 31.582 14.3906L31.5039 14.5078C31.4648 14.5599 31.4388 14.5924 31.4258 14.6055C31.3021 14.957 31.1654 15.2988 31.0156 15.6309C30.944 15.7936 30.8724 15.9596 30.8008 16.1289C30.7292 16.2982 30.6576 16.4674 30.5859 16.6367C30.931 16.4674 31.1784 16.3307 31.3281 16.2266C31.4128 16.168 31.5007 16.1126 31.5918 16.0605C31.6829 16.002 31.7773 15.9466 31.875 15.8945L32.2266 15.6602C32.2852 15.6211 32.3438 15.582 32.4023 15.543C32.4674 15.5039 32.5326 15.4648 32.5977 15.4258C32.7018 15.2956 32.819 15.1882 32.9492 15.1035C33.0794 15.0189 33.2161 14.931 33.3594 14.8398C33.4505 14.7487 33.5417 14.6738 33.6328 14.6152C33.724 14.5566 33.8216 14.4948 33.9258 14.4297C33.9583 14.4036 33.9909 14.3776 34.0234 14.3516C34.056 14.3255 34.0853 14.2995 34.1113 14.2734C34.1895 14.2083 34.2513 14.1628 34.2969 14.1367L34.4434 13.9805C34.5085 13.9154 34.5638 13.8698 34.6094 13.8438C34.7266 13.7982 34.8438 13.7396 34.9609 13.668C35.026 13.6289 35.0749 13.5964 35.1074 13.5703C35.153 13.5312 35.2083 13.4987 35.2734 13.4727L35.4102 13.2871C35.4622 13.209 35.5339 13.1862 35.625 13.2188C35.6576 13.1797 35.7064 13.1602 35.7715 13.1602C35.8496 13.1602 35.9049 13.1732 35.9375 13.1992C35.9375 13.2448 35.9473 13.2839 35.9668 13.3164C35.9863 13.349 35.9831 13.3945 35.957 13.4531C35.8919 13.4987 35.8333 13.5475 35.7812 13.5996C35.7422 13.6387 35.6771 13.6745 35.5859 13.707C35.4232 13.8828 35.2767 14.013 35.1465 14.0977C35.0228 14.1758 34.9219 14.2865 34.8438 14.4297C34.6224 14.651 34.3945 14.8724 34.1602 15.0938C33.9258 15.3151 33.6914 15.5299 33.457 15.7383C33.3854 15.7383 33.3138 15.7643 33.2422 15.8164C33.1706 15.8685 33.1055 15.8815 33.0469 15.8555C32.9688 15.8229 32.9036 15.875 32.8516 16.0117C32.513 16.3698 32.1354 16.6888 31.7188 16.9688C31.4648 17.2357 31.1719 17.4733 30.8398 17.6816C30.5013 17.8965 30.2083 18.1276 29.9609 18.375C29.9349 18.6289 29.8665 18.8796 29.7559 19.127C29.6452 19.3743 29.5573 19.612 29.4922 19.8398C29.4401 19.9505 29.3945 20.0547 29.3555 20.1523C29.3229 20.25 29.2936 20.3411 29.2676 20.4258C29.2155 20.6016 29.1471 20.7643 29.0625 20.9141C29.0234 21.1354 28.9583 21.3405 28.8672 21.5293C28.776 21.7181 28.6784 21.9036 28.5742 22.0859C28.5417 22.2422 28.4766 22.3789 28.3789 22.4961C28.2878 22.6068 28.2031 22.75 28.125 22.9258C28.0924 22.9974 28.0599 23.0592 28.0273 23.1113C27.9948 23.1634 27.9622 23.2253 27.9297 23.2969C27.8906 23.362 27.8581 23.4271 27.832 23.4922C27.806 23.5573 27.7734 23.6224 27.7344 23.6875L27.6562 23.7754C27.6432 23.7884 27.6302 23.8014 27.6172 23.8145C27.6042 23.834 27.5911 23.8503 27.5781 23.8633L27.3438 24.2734C27.2331 24.5078 27.0996 24.6934 26.9434 24.8301C26.8587 24.9017 26.7741 24.9798 26.6895 25.0645C26.6048 25.1491 26.5169 25.237 26.4258 25.3281C26.3672 25.3867 26.3118 25.4518 26.2598 25.5234C26.2142 25.5885 26.1589 25.6536 26.0938 25.7188C26.0091 25.8034 25.944 25.8652 25.8984 25.9043C25.8659 25.9303 25.8333 25.9596 25.8008 25.9922C25.7682 26.0312 25.7357 26.0703 25.7031 26.1094C25.599 26.1484 25.5143 26.2103 25.4492 26.2949C25.3841 26.3796 25.319 26.4674 25.2539 26.5586C25.1888 26.5977 25.1465 26.627 25.127 26.6465C25.1074 26.666 25.0651 26.6953 25 26.7344C24.9089 26.7669 24.8438 26.7962 24.8047 26.8223C24.7591 26.8548 24.7331 26.8711 24.7266 26.8711C24.6419 26.9167 24.5443 26.946 24.4336 26.959C24.3229 26.972 24.2318 27.0078 24.1602 27.0664C24.0299 27.0664 23.9355 27.0404 23.877 26.9883C23.8184 26.9362 23.763 26.8776 23.7109 26.8125C23.6198 26.6432 23.5905 26.4674 23.623 26.2852C23.6491 26.1029 23.6914 25.9108 23.75 25.709C23.8086 25.5072 23.8281 25.2956 23.8086 25.0742C23.8802 24.8659 23.9193 24.6901 23.9258 24.5469C23.9323 24.4167 23.9583 24.2865 24.0039 24.1562C24.1016 23.9935 24.1536 23.8893 24.1602 23.8438C24.1667 23.7852 24.2057 23.7396 24.2773 23.707C24.2904 23.6224 24.3099 23.5573 24.3359 23.5117C24.3685 23.4596 24.388 23.401 24.3945 23.3359C24.4336 23.3099 24.4661 23.2773 24.4922 23.2383C24.5182 23.2057 24.5573 23.1732 24.6094 23.1406C24.6745 23.0104 24.7331 22.89 24.7852 22.7793C24.8372 22.6686 24.8796 22.5677 24.9121 22.4766C24.9447 22.3854 24.9805 22.2943 25.0195 22.2031C25.0651 22.112 25.1107 22.0208 25.1562 21.9297C25.1758 21.8776 25.1921 21.8255 25.2051 21.7734C25.2246 21.7279 25.2409 21.6823 25.2539 21.6367C25.2669 21.5911 25.2799 21.5456 25.293 21.5C25.3125 21.4609 25.332 21.4219 25.3516 21.3828C25.4102 21.2526 25.498 21.1094 25.6152 20.9531L25.9375 20.5234C25.9831 20.4648 26.0221 20.4128 26.0547 20.3672C26.0872 20.3281 26.11 20.2956 26.123 20.2695C26.1621 20.2044 26.1914 20.1589 26.2109 20.1328C26.3216 20.0547 26.3704 20.0059 26.3574 19.9863C26.3509 19.9668 26.3542 19.957 26.3672 19.957C26.543 19.7812 26.7122 19.625 26.875 19.4883C26.9531 19.3971 27.0312 19.3125 27.1094 19.2344C27.1875 19.1562 27.2786 19.0846 27.3828 19.0195C27.4609 18.9284 27.5391 18.8438 27.6172 18.7656C27.6953 18.6875 27.7865 18.6159 27.8906 18.5508C27.9948 18.4792 28.0924 18.4043 28.1836 18.3262C28.2812 18.2415 28.3724 18.1569 28.457 18.0723C28.5417 17.9811 28.6296 17.8965 28.7207 17.8184C28.8118 17.7402 28.9062 17.6654 29.0039 17.5938C29.0365 17.3984 29.082 17.2357 29.1406 17.1055C29.1992 16.9818 29.2448 16.8255 29.2773 16.6367C29.3294 16.5456 29.375 16.4414 29.4141 16.3242C29.4531 16.207 29.4857 16.0964 29.5117 15.9922C29.5508 15.9531 29.5801 15.901 29.5996 15.8359C29.6257 15.7448 29.6484 15.6732 29.668 15.6211C29.7331 15.4974 29.7656 15.3867 29.7656 15.2891C29.7786 15.1849 29.7852 15.1165 29.7852 15.084C29.7852 15.0189 29.7982 14.9505 29.8242 14.8789C29.8372 14.7878 29.8438 14.6966 29.8438 14.6055C29.7331 14.7031 29.6517 14.7943 29.5996 14.8789C29.5345 14.9831 29.4661 15.0807 29.3945 15.1719C29.3685 15.1979 29.3392 15.2272 29.3066 15.2598C29.2741 15.2923 29.2513 15.3411 29.2383 15.4062C29.1602 15.4909 29.1146 15.5365 29.1016 15.543C29.0755 15.5495 29.0625 15.569 29.0625 15.6016C28.9128 15.7708 28.763 15.9434 28.6133 16.1191C28.4701 16.2884 28.3236 16.4642 28.1738 16.6465C28.0306 16.8288 27.8841 17.0078 27.7344 17.1836C27.5846 17.3529 27.4349 17.5221 27.2852 17.6914C27.168 17.7956 27.0443 17.8965 26.9141 17.9941C26.7839 18.0918 26.6471 18.1927 26.5039 18.2969C26.4518 18.3359 26.3932 18.3815 26.3281 18.4336C26.2695 18.4792 26.2044 18.528 26.1328 18.5801C25.9831 18.6908 25.8073 18.7135 25.6055 18.6484C25.306 18.7656 25.0618 18.7428 24.873 18.5801C24.6842 18.4173 24.5378 18.2383 24.4336 18.043C24.3815 17.9648 24.3392 17.8965 24.3066 17.8379C24.2741 17.7793 24.2643 17.6784 24.2773 17.5352C24.2904 17.4635 24.3066 17.3919 24.3262 17.3203C24.3392 17.2422 24.3555 17.1673 24.375 17.0957C24.3945 17.0241 24.4141 16.946 24.4336 16.8613C24.4466 16.7767 24.4596 16.6888 24.4727 16.5977C24.4857 16.526 24.4987 16.4544 24.5117 16.3828C24.5247 16.3112 24.5345 16.2396 24.541 16.168C24.5605 16.0312 24.5898 15.8815 24.6289 15.7188C24.668 15.5365 24.7201 15.3607 24.7852 15.1914C24.8503 15.0221 24.9284 14.8789 25.0195 14.7617C25.0521 14.6641 25.0846 14.5697 25.1172 14.4785C25.1497 14.3809 25.179 14.2897 25.2051 14.2051C25.2376 14.1139 25.2669 14.026 25.293 13.9414C25.3255 13.8503 25.3581 13.7591 25.3906 13.668C25.4557 13.4596 25.5339 13.2578 25.625 13.0625C25.7161 12.8672 25.8138 12.6784 25.918 12.4961C25.9831 12.4049 26.0449 12.3236 26.1035 12.252C26.1621 12.1803 26.224 12.1055 26.2891 12.0273C26.4193 12.0143 26.5234 11.9915 26.6016 11.959C26.6797 11.9264 26.7578 11.8906 26.8359 11.8516C26.8815 11.8385 26.9271 11.8255 26.9727 11.8125C27.0182 11.7995 27.0638 11.7897 27.1094 11.7832C27.1549 11.7702 27.1973 11.7604 27.2363 11.7539C27.2819 11.7409 27.3242 11.7279 27.3633 11.7148C27.5065 11.6497 27.5977 11.6204 27.6367 11.627C27.6693 11.6335 27.7018 11.6172 27.7344 11.5781C27.7604 11.6432 27.7995 11.6855 27.8516 11.7051C27.9102 11.7246 27.9427 11.7669 27.9492 11.832C27.9492 11.9232 27.9134 12.0339 27.8418 12.1641C27.7767 12.2878 27.7279 12.3854 27.6953 12.457C27.6693 12.5026 27.6432 12.5514 27.6172 12.6035C27.5911 12.6556 27.5651 12.7109 27.5391 12.7695C27.487 12.8932 27.4284 12.9974 27.3633 13.082C27.3503 13.1406 27.334 13.1992 27.3145 13.2578C27.3014 13.3164 27.2819 13.3717 27.2559 13.4238C27.2298 13.4759 27.207 13.5312 27.1875 13.5898C27.168 13.6484 27.1484 13.707 27.1289 13.7656C26.9987 13.9089 26.8848 14.0716 26.7871 14.2539C26.6895 14.4362 26.5885 14.6315 26.4844 14.8398C26.4583 14.9049 26.429 14.9635 26.3965 15.0156C26.3704 15.0612 26.3411 15.1198 26.3086 15.1914C26.2956 15.25 26.2826 15.3086 26.2695 15.3672C26.263 15.4258 26.2533 15.4844 26.2402 15.543C26.2337 15.6016 26.224 15.6602 26.2109 15.7188C26.1979 15.7773 26.1849 15.8359 26.1719 15.8945C26.1198 16.0312 26.0807 16.181 26.0547 16.3438C26.0286 16.526 26.0091 16.7083 25.9961 16.8906C25.9831 17.0729 25.9766 17.2617 25.9766 17.457ZM28.7695 19.1367H28.75C28.4961 19.2995 28.2682 19.485 28.0664 19.6934C27.9688 19.7975 27.8678 19.8984 27.7637 19.9961C27.666 20.1003 27.5651 20.2044 27.4609 20.3086C27.4154 20.3607 27.3698 20.4095 27.3242 20.4551C27.2786 20.5072 27.2331 20.5592 27.1875 20.6113C27.0898 20.722 27.0052 20.8294 26.9336 20.9336C26.8685 21.0508 26.8001 21.1712 26.7285 21.2949C26.6569 21.4186 26.569 21.5326 26.4648 21.6367C26.3021 21.7865 26.2044 21.9004 26.1719 21.9785C26.1523 22.0241 26.1328 22.0632 26.1133 22.0957C26.0938 22.1348 26.0742 22.1706 26.0547 22.2031L25.9082 22.5059C25.8822 22.5514 25.8561 22.597 25.8301 22.6426C25.804 22.6947 25.7747 22.7435 25.7422 22.7891C25.6836 22.8997 25.625 23.0299 25.5664 23.1797C25.5078 23.3294 25.4492 23.4596 25.3906 23.5703C25.2995 23.8047 25.2279 24.0293 25.1758 24.2441C25.1237 24.459 25.1042 24.6771 25.1172 24.8984V25.0449C25.1172 25.084 25.1367 25.1198 25.1758 25.1523C25.2344 25.1523 25.332 25.1263 25.4688 25.0742C25.5729 24.9831 25.6738 24.8919 25.7715 24.8008C25.8691 24.7096 25.9635 24.612 26.0547 24.5078C26.237 24.2995 26.4323 24.0911 26.6406 23.8828C26.8229 23.6745 26.9857 23.4499 27.1289 23.209C27.2721 22.9681 27.3958 22.6979 27.5 22.3984C27.5391 22.3268 27.5749 22.252 27.6074 22.1738C27.64 22.1022 27.6693 22.0241 27.6953 21.9395C27.7409 21.7832 27.806 21.6367 27.8906 21.5C27.9622 21.2917 28.0339 21.0866 28.1055 20.8848C28.1836 20.6829 28.2617 20.4876 28.3398 20.2988C28.5091 19.8952 28.6523 19.5078 28.7695 19.1367ZM43.3594 6.12891H43.4375C43.5026 6.46094 43.5807 6.76693 43.6719 7.04688C43.7565 7.32031 43.8151 7.61979 43.8477 7.94531C43.8477 8.04948 43.8444 8.1276 43.8379 8.17969C43.8314 8.23177 43.8346 8.3099 43.8477 8.41406V8.64844C43.8477 8.7526 43.8379 8.85026 43.8184 8.94141C43.7988 9.02604 43.7891 9.1237 43.7891 9.23438C43.7826 9.46224 43.7435 9.6901 43.6719 9.91797C43.6589 10.0677 43.6458 10.1361 43.6328 10.123C43.6198 10.11 43.6133 10.1198 43.6133 10.1523C43.5872 10.2956 43.5677 10.4323 43.5547 10.5625C43.5482 10.6862 43.5286 10.8229 43.4961 10.9727C43.7305 10.9987 44.0007 11.028 44.3066 11.0605C44.6126 11.0931 44.9023 11.0964 45.1758 11.0703C45.2409 11.0638 45.3027 11.0443 45.3613 11.0117C45.3939 10.9987 45.4232 10.9857 45.4492 10.9727C45.4818 10.9596 45.5143 10.9466 45.5469 10.9336C45.7812 10.901 45.957 10.849 46.0742 10.7773C46.2109 10.6927 46.3672 10.6276 46.543 10.582C46.4974 10.7188 46.4323 10.8034 46.3477 10.8359C46.3151 10.9531 46.2793 11.041 46.2402 11.0996C46.2207 11.1322 46.1849 11.168 46.1328 11.207C46.1003 11.2331 46.0677 11.2591 46.0352 11.2852C46.0091 11.3047 45.9831 11.321 45.957 11.334C45.931 11.347 45.9017 11.3665 45.8691 11.3926C45.8431 11.4121 45.8138 11.4349 45.7812 11.4609C45.5859 11.5716 45.4199 11.6335 45.2832 11.6465C45.153 11.6595 45.0391 11.6823 44.9414 11.7148C44.8503 11.7018 44.7428 11.6888 44.6191 11.6758C44.4954 11.6628 44.388 11.6628 44.2969 11.6758C44.2318 11.6367 44.1602 11.6172 44.082 11.6172C43.9974 11.6172 43.9193 11.6302 43.8477 11.6562C43.7109 11.6953 43.6068 11.7311 43.5352 11.7637C43.5091 11.7702 43.4831 11.7799 43.457 11.793C43.431 11.806 43.4049 11.819 43.3789 11.832C43.3659 11.8711 43.3561 11.9069 43.3496 11.9395C43.3431 11.9655 43.3366 11.9883 43.3301 12.0078L43.3008 12.1055C43.2943 12.1771 43.2878 12.2487 43.2812 12.3203C43.2812 12.3854 43.278 12.4538 43.2715 12.5254C43.2585 12.6751 43.2357 12.8151 43.2031 12.9453C43.151 13.069 43.125 13.1439 43.125 13.1699C43.125 13.209 43.112 13.2513 43.0859 13.2969C43.0469 13.362 43.0143 13.4401 42.9883 13.5312C42.9622 13.6224 42.9362 13.7135 42.9102 13.8047C42.8451 13.8698 42.806 13.9479 42.793 14.0391C42.7799 14.1302 42.7669 14.2279 42.7539 14.332C42.7409 14.4362 42.7083 14.5371 42.6562 14.6348C42.6042 14.7324 42.5521 14.8268 42.5 14.918C42.474 14.9831 42.4479 15.0449 42.4219 15.1035C42.3958 15.1621 42.3633 15.224 42.3242 15.2891C42.1745 15.4779 42.0247 15.6862 41.875 15.9141C41.8099 16.0573 41.7415 16.1842 41.6699 16.2949C41.6374 16.347 41.6016 16.4056 41.5625 16.4707C41.5299 16.5293 41.4974 16.5911 41.4648 16.6562C41.3607 16.8385 41.2305 16.998 41.0742 17.1348C40.9961 17.1999 40.918 17.2682 40.8398 17.3398C40.7617 17.4115 40.6836 17.4831 40.6055 17.5547C40.5273 17.6198 40.4492 17.6914 40.3711 17.7695C40.293 17.8477 40.2214 17.9193 40.1562 17.9844L39.7461 18.3945C39.7005 18.4271 39.6549 18.4629 39.6094 18.502C39.5638 18.5345 39.515 18.5671 39.4629 18.5996C39.4173 18.6322 39.3685 18.668 39.3164 18.707C39.2643 18.7396 39.2122 18.7721 39.1602 18.8047C39.056 18.8633 38.9518 18.9219 38.8477 18.9805C38.75 19.0326 38.6491 19.0846 38.5449 19.1367C38.4408 19.1888 38.3366 19.2441 38.2324 19.3027C38.1283 19.3613 38.0208 19.4232 37.9102 19.4883L37.6172 19.6738C37.5326 19.7324 37.4349 19.7812 37.3242 19.8203C37.2721 19.8398 37.1908 19.8561 37.0801 19.8691L36.8359 19.8984C36.7318 19.9245 36.6341 19.9473 36.543 19.9668C36.4518 19.9863 36.3477 19.9961 36.2305 19.9961C36.0872 19.9831 35.9277 19.9538 35.752 19.9082C35.5762 19.8626 35.4427 19.8073 35.3516 19.7422C35.1693 19.5729 35.0684 19.4622 35.0488 19.4102C35.0228 19.3516 34.974 19.2865 34.9023 19.2148C34.8958 19.1628 34.8796 19.127 34.8535 19.1074C34.834 19.0879 34.8242 19.0521 34.8242 19C34.7266 18.8568 34.6549 18.7266 34.6094 18.6094C34.4922 18.362 34.4108 18.1439 34.3652 17.9551C34.3197 17.7663 34.3099 17.5677 34.3359 17.3594C34.3099 17.1771 34.2969 16.9395 34.2969 16.6465V15.875C34.2969 15.8294 34.2969 15.7871 34.2969 15.748C34.2969 15.7025 34.2936 15.6569 34.2871 15.6113C34.2806 15.5267 34.2904 15.4518 34.3164 15.3867C34.3034 15.2826 34.2936 15.1816 34.2871 15.084C34.2806 14.9863 34.2904 14.8984 34.3164 14.8203L34.3457 14.5273C34.3587 14.4427 34.375 14.3776 34.3945 14.332C34.4596 14.2669 34.4889 14.2018 34.4824 14.1367C34.4759 14.0716 34.4857 14.0065 34.5117 13.9414C34.5573 13.6029 34.6419 13.2904 34.7656 13.0039L34.8828 12.7012C34.9154 12.623 34.9479 12.5221 34.9805 12.3984C35.0521 12.1901 35.14 11.9883 35.2441 11.793C35.2962 11.7018 35.3451 11.6074 35.3906 11.5098C35.4362 11.4121 35.4818 11.3112 35.5273 11.207C35.7227 10.8099 35.9147 10.4616 36.1035 10.1621C36.2077 9.99935 36.3086 9.83659 36.4062 9.67383C36.5104 9.51107 36.6146 9.34505 36.7188 9.17578C36.7773 9.14323 36.8229 9.08789 36.8555 9.00977C36.888 8.93815 36.9271 8.88281 36.9727 8.84375C37.0833 8.60938 37.207 8.42057 37.3438 8.27734L37.7734 7.80859C37.832 7.76302 37.8906 7.70768 37.9492 7.64258C37.9818 7.60352 38.0404 7.54167 38.125 7.45703C38.1771 7.40495 38.2194 7.36914 38.252 7.34961C38.2845 7.33008 38.3203 7.28776 38.3594 7.22266C38.4115 7.19661 38.4603 7.16406 38.5059 7.125C38.5514 7.08594 38.5938 7.04688 38.6328 7.00781L38.9453 6.77344C39.043 6.70182 39.1374 6.62044 39.2285 6.5293C39.3132 6.44466 39.4076 6.36979 39.5117 6.30469L39.707 6.28516C39.7331 6.28516 39.7461 6.26562 39.7461 6.22656C39.8828 6.11589 39.9837 6.02148 40.0488 5.94336C40.0944 5.89128 40.1367 5.82943 40.1758 5.75781C40.2865 5.6862 40.3776 5.61133 40.4492 5.5332C40.5208 5.45508 40.612 5.38021 40.7227 5.30859C40.7617 5.26302 40.7943 5.22721 40.8203 5.20117C40.8529 5.16862 40.8757 5.14583 40.8887 5.13281C40.9017 5.11979 40.918 5.10677 40.9375 5.09375C40.957 5.08073 40.9766 5.06771 40.9961 5.05469C41.0286 5.01562 41.0579 4.98633 41.084 4.9668C41.123 4.94076 41.1458 4.91797 41.1523 4.89844C41.224 4.86589 41.2826 4.83659 41.3281 4.81055C41.3737 4.78451 41.4388 4.75521 41.5234 4.72266C41.6146 4.73568 41.6895 4.73568 41.748 4.72266C41.8066 4.70964 41.862 4.70964 41.9141 4.72266C41.9857 4.72917 42.0475 4.75846 42.0996 4.81055C42.1647 4.87565 42.2201 4.92448 42.2656 4.95703C42.4219 4.98307 42.5423 5.06445 42.627 5.20117C42.7181 5.33789 42.8125 5.4388 42.9102 5.50391C42.9883 5.6276 43.0632 5.72852 43.1348 5.80664C43.2064 5.88477 43.2812 5.99219 43.3594 6.12891ZM41.9141 9.85938C41.9792 9.95052 42.0573 10.0319 42.1484 10.1035C42.2396 10.1751 42.3307 10.2435 42.4219 10.3086C42.4219 10.1393 42.4251 9.96354 42.4316 9.78125C42.4447 9.59896 42.4577 9.4069 42.4707 9.20508C42.4837 9.00326 42.4902 8.8112 42.4902 8.62891C42.4967 8.44661 42.4935 8.27083 42.4805 8.10156C42.4609 8.02995 42.4414 7.96159 42.4219 7.89648C42.4023 7.82487 42.3796 7.75651 42.3535 7.69141C42.3275 7.6263 42.3047 7.55794 42.2852 7.48633C42.2721 7.41471 42.2591 7.33984 42.2461 7.26172C42.194 7.20964 42.1582 7.15755 42.1387 7.10547C42.1322 7.07943 42.1224 7.05339 42.1094 7.02734C42.0964 7.0013 42.0833 6.97526 42.0703 6.94922C42.0052 6.8776 41.9727 6.82878 41.9727 6.80273C41.9727 6.7832 41.9596 6.76042 41.9336 6.73438L41.8457 6.65625C41.8066 6.61719 41.7773 6.58464 41.7578 6.55859C41.6016 6.54557 41.4746 6.57487 41.377 6.64648C41.3314 6.67904 41.2826 6.71484 41.2305 6.75391C41.1849 6.78646 41.1393 6.81901 41.0938 6.85156C41.0677 7.03385 41.0612 7.20312 41.0742 7.35938C41.0872 7.51562 41.1068 7.66536 41.1328 7.80859C41.1719 8.05599 41.2109 8.30339 41.25 8.55078C41.2891 8.79818 41.3542 9.01302 41.4453 9.19531C41.4583 9.28646 41.5104 9.39388 41.6016 9.51758C41.6927 9.64128 41.7969 9.75521 41.9141 9.85938ZM39.2969 8.16016C39.2122 8.24479 39.1471 8.30339 39.1016 8.33594C39.0365 8.38151 38.9779 8.44661 38.9258 8.53125C38.8867 8.5638 38.8509 8.59635 38.8184 8.62891C38.7858 8.66146 38.7565 8.69401 38.7305 8.72656C38.6979 8.77214 38.6393 8.83724 38.5547 8.92188C38.418 9.05859 38.3073 9.1888 38.2227 9.3125C38.1836 9.33854 38.151 9.37109 38.125 9.41016C38.0859 9.46224 38.0534 9.5013 38.0273 9.52734C37.9622 9.61198 37.9069 9.68359 37.8613 9.74219C37.8158 9.80078 37.7799 9.84635 37.7539 9.87891C37.6953 9.95703 37.6562 10.0221 37.6367 10.0742C37.5586 10.1263 37.4967 10.1947 37.4512 10.2793C37.4056 10.3639 37.3633 10.4518 37.3242 10.543C37.2461 10.6471 37.1745 10.7578 37.1094 10.875C37.0443 10.9922 36.9857 11.1094 36.9336 11.2266C36.8294 11.4089 36.7676 11.5326 36.748 11.5977C36.7285 11.6693 36.7057 11.7344 36.6797 11.793C36.6276 11.8776 36.582 11.9818 36.543 12.1055C36.3216 12.5677 36.1263 13.1016 35.957 13.707C35.944 13.7656 35.9277 13.8242 35.9082 13.8828C35.8952 13.9349 35.8757 13.987 35.8496 14.0391C35.7975 14.1497 35.7682 14.2539 35.7617 14.3516C35.7487 14.4167 35.7454 14.4688 35.752 14.5078C35.7585 14.5404 35.7617 14.5924 35.7617 14.6641C35.7552 14.7292 35.7487 14.7943 35.7422 14.8594C35.7357 14.918 35.7292 14.9798 35.7227 15.0449C35.7161 15.11 35.7096 15.1751 35.7031 15.2402C35.7031 15.3053 35.7031 15.3737 35.7031 15.4453V16.168C35.7031 16.4154 35.7161 16.6432 35.7422 16.8516C35.7422 17.0273 35.7552 17.1641 35.7812 17.2617C35.8073 17.3138 35.8529 17.3659 35.918 17.418C35.9831 17.4701 36.0417 17.5156 36.0938 17.5547L36.4062 17.877C36.5169 17.9876 36.6602 18.0104 36.8359 17.9453C36.901 17.9844 36.9727 17.9844 37.0508 17.9453C37.1354 17.9062 37.2135 17.8997 37.2852 17.9258C37.3372 17.9062 37.4023 17.89 37.4805 17.877C37.5651 17.8639 37.6302 17.8477 37.6758 17.8281L37.9785 17.7402C38.0306 17.7272 38.0794 17.7142 38.125 17.7012C38.1706 17.6816 38.2161 17.6654 38.2617 17.6523C38.3138 17.6328 38.3659 17.6133 38.418 17.5938C38.4701 17.5742 38.5221 17.5579 38.5742 17.5449C38.6589 17.5189 38.7565 17.4766 38.8672 17.418C39.1146 17.2031 39.3034 17.0273 39.4336 16.8906C39.5312 16.793 39.6224 16.7116 39.707 16.6465C39.7982 16.5749 39.8828 16.5 39.9609 16.4219C40.026 16.3568 40.0911 16.2884 40.1562 16.2168C40.2214 16.1452 40.2799 16.0573 40.332 15.9531C40.4167 15.8685 40.4818 15.7773 40.5273 15.6797C40.5924 15.6016 40.6413 15.5169 40.6738 15.4258C40.7064 15.3281 40.7552 15.237 40.8203 15.1523C40.8984 14.918 40.9896 14.7096 41.0938 14.5273C41.1458 14.4297 41.1914 14.332 41.2305 14.2344C41.276 14.1302 41.3151 14.026 41.3477 13.9219C41.4648 13.6745 41.5658 13.4564 41.6504 13.2676C41.735 13.0788 41.7969 12.8867 41.8359 12.6914C41.8685 12.6589 41.8913 12.61 41.9043 12.5449C41.9173 12.4733 41.9336 12.4245 41.9531 12.3984C42.0182 12.2161 42.0736 12.0404 42.1191 11.8711C42.1647 11.7018 42.2135 11.513 42.2656 11.3047C42.2135 11.2721 42.168 11.2624 42.1289 11.2754C42.0898 11.2819 42.0508 11.2721 42.0117 11.2461C41.9141 11.2135 41.8197 11.1452 41.7285 11.041C41.6374 10.9368 41.543 10.8815 41.4453 10.875C41.4193 10.8555 41.3932 10.8392 41.3672 10.8262C41.3477 10.8066 41.3314 10.7904 41.3184 10.7773C41.3053 10.7643 41.2858 10.7513 41.2598 10.7383C41.2402 10.7253 41.2174 10.7122 41.1914 10.6992C40.9831 10.4779 40.7845 10.2467 40.5957 10.0059C40.4069 9.76497 40.2539 9.49479 40.1367 9.19531C40.0195 8.9349 39.9284 8.69076 39.8633 8.46289C39.7982 8.23503 39.7396 7.99089 39.6875 7.73047C39.5378 7.88021 39.4076 8.02344 39.2969 8.16016ZM45.8008 16.5977C45.9049 16.5326 45.9896 16.4479 46.0547 16.3438C46.0872 16.2917 46.123 16.2396 46.1621 16.1875C46.2012 16.1354 46.2435 16.0833 46.2891 16.0312C46.4583 15.8359 46.6406 15.6732 46.8359 15.543C46.9271 15.4062 47.041 15.3053 47.1777 15.2402C47.3145 15.1686 47.4219 15.0612 47.5 14.918C47.5195 14.8919 47.5423 14.8529 47.5684 14.8008C47.5944 14.7487 47.6172 14.7096 47.6367 14.6836C47.8841 14.3385 48.151 14.0521 48.4375 13.8242C48.4766 13.7917 48.5156 13.7591 48.5547 13.7266C48.5938 13.694 48.6296 13.6615 48.6621 13.6289C48.7142 13.5768 48.8021 13.5117 48.9258 13.4336C48.9844 13.401 49.043 13.3652 49.1016 13.3262C49.1602 13.2806 49.2155 13.2318 49.2676 13.1797C49.3717 13.0755 49.4922 12.9974 49.6289 12.9453C49.7135 12.9062 49.7982 12.877 49.8828 12.8574C49.9219 12.8444 49.9609 12.8346 50 12.8281C50.0456 12.8151 50.0911 12.8021 50.1367 12.7891C50.2279 12.763 50.3092 12.7402 50.3809 12.7207C50.4525 12.7012 50.5339 12.7044 50.625 12.7305C50.8333 12.8151 50.9896 12.9909 51.0938 13.2578C51.1328 13.3555 51.11 13.5605 51.0254 13.873C50.9473 14.1855 50.8529 14.5111 50.7422 14.8496C50.6315 15.1816 50.5534 15.4388 50.5078 15.6211C50.4818 15.7188 50.4753 15.7741 50.4883 15.7871C50.5013 15.8001 50.5078 15.8164 50.5078 15.8359C50.4818 15.901 50.4622 15.9596 50.4492 16.0117C50.4362 16.0638 50.4232 16.1224 50.4102 16.1875C50.3841 16.2917 50.3646 16.4316 50.3516 16.6074C50.3385 16.7832 50.3451 16.9232 50.3711 17.0273C50.5013 17.0208 50.5762 17.0078 50.5957 16.9883C50.6087 16.9753 50.625 16.9688 50.6445 16.9688C50.6966 16.9557 50.7389 16.9525 50.7715 16.959C50.804 16.9655 50.8464 16.9622 50.8984 16.9492C51.1654 16.8776 51.4062 16.7344 51.6211 16.5195C51.7383 16.4674 51.849 16.4154 51.9531 16.3633C52.0638 16.3112 52.168 16.2591 52.2656 16.207C52.4479 16.0768 52.5944 15.9824 52.7051 15.9238C52.8158 15.8652 52.9818 15.7839 53.2031 15.6797C53.2878 15.582 53.4017 15.5007 53.5449 15.4355C53.6751 15.377 53.8021 15.2956 53.9258 15.1914C53.9648 15.1523 53.9974 15.1165 54.0234 15.084C54.0625 15.0319 54.1016 15.0221 54.1406 15.0547C54.2057 15.1198 54.248 15.1882 54.2676 15.2598C54.2871 15.3314 54.2904 15.3802 54.2773 15.4062C54.1797 15.5039 54.1243 15.582 54.1113 15.6406C54.0983 15.6992 54.082 15.7383 54.0625 15.7578C53.9974 15.8229 53.8997 15.8815 53.7695 15.9336C53.6589 15.9792 53.5905 16.0215 53.5645 16.0605C53.5384 16.0996 53.5156 16.1289 53.4961 16.1484C53.457 16.1875 53.4212 16.2168 53.3887 16.2363C53.3561 16.2559 53.3203 16.2852 53.2812 16.3242C53.2552 16.3633 53.2194 16.3861 53.1738 16.3926L53.0469 16.4219C52.9688 16.487 52.9036 16.5456 52.8516 16.5977C52.7995 16.6497 52.7409 16.7083 52.6758 16.7734C52.5781 16.8711 52.513 16.946 52.4805 16.998C52.4544 17.0436 52.3828 17.1055 52.2656 17.1836L51.875 17.418C51.6927 17.5091 51.5104 17.6198 51.3281 17.75C51.1458 17.8802 50.9635 18.0104 50.7812 18.1406C50.6641 18.2122 50.5306 18.2806 50.3809 18.3457C50.2441 18.4043 50.1172 18.4727 50 18.5508C49.9414 18.5508 49.9056 18.5475 49.8926 18.541C49.873 18.528 49.8372 18.5378 49.7852 18.5703C49.7201 18.5378 49.6549 18.5345 49.5898 18.5605C49.5182 18.5931 49.4531 18.5964 49.3945 18.5703C49.3294 18.5182 49.2741 18.4759 49.2285 18.4434C49.1895 18.4108 49.1569 18.388 49.1309 18.375C49.0918 18.349 49.056 18.3164 49.0234 18.2773C48.9974 18.2122 48.9876 18.1406 48.9941 18.0625C49.0007 17.9844 48.9844 17.9193 48.9453 17.8672C48.9453 17.5807 48.9551 17.3073 48.9746 17.0469C48.9941 16.7865 49.0365 16.513 49.1016 16.2266C49.1146 16.1354 49.1471 15.9792 49.1992 15.7578C49.2513 15.5299 49.2936 15.3118 49.3262 15.1035C49.3587 14.8952 49.349 14.7747 49.2969 14.7422C49.1536 14.8203 49.0072 14.9375 48.8574 15.0938C48.7858 15.1719 48.7142 15.2435 48.6426 15.3086C48.571 15.3737 48.5026 15.4323 48.4375 15.4844L48.1348 15.6992C48.0892 15.7318 48.0404 15.7676 47.9883 15.8066C47.9362 15.8392 47.8841 15.875 47.832 15.9141C47.7409 15.9792 47.6628 16.0443 47.5977 16.1094C47.5326 16.1745 47.4609 16.2526 47.3828 16.3438C47.3372 16.3893 47.2917 16.4349 47.2461 16.4805C47.207 16.5195 47.168 16.5618 47.1289 16.6074C47.0508 16.6921 46.9596 16.7734 46.8555 16.8516C46.7904 16.9167 46.7415 16.959 46.709 16.9785C46.6764 16.998 46.6341 17.0339 46.582 17.0859L46.3965 17.2715C46.3379 17.3301 46.263 17.3789 46.1719 17.418C45.9635 17.6979 45.7292 17.9681 45.4688 18.2285C45.2148 18.4889 45.013 18.7526 44.8633 19.0195C44.707 19.1497 44.541 19.2637 44.3652 19.3613C44.1895 19.459 43.9779 19.4688 43.7305 19.3906C43.6003 19.3125 43.5156 19.2474 43.4766 19.1953C43.4375 19.1497 43.3919 19.1107 43.3398 19.0781C43.3529 18.9349 43.3659 18.7982 43.3789 18.668C43.3919 18.5378 43.431 18.401 43.4961 18.2578L43.6133 18.0625C43.6784 17.9518 43.7207 17.8216 43.7402 17.6719C43.7598 17.5156 43.8021 17.3789 43.8672 17.2617C43.9453 17.1315 43.9941 17.0241 44.0137 16.9395C44.0332 16.8613 44.0625 16.7865 44.1016 16.7148C44.1341 16.6367 44.1699 16.5749 44.209 16.5293C44.248 16.4837 44.2839 16.4219 44.3164 16.3438C44.349 16.2721 44.3945 16.1973 44.4531 16.1191C44.5117 16.041 44.5573 15.9661 44.5898 15.8945C44.668 15.6146 44.7721 15.3281 44.9023 15.0352C44.9284 14.944 44.9544 14.8561 44.9805 14.7715C45.0065 14.6868 45.0391 14.6055 45.0781 14.5273C45.1107 14.4557 45.1432 14.3841 45.1758 14.3125C45.2083 14.2409 45.2409 14.1725 45.2734 14.1074C45.306 14.0358 45.3385 13.9674 45.3711 13.9023C45.4036 13.8307 45.4362 13.7591 45.4688 13.6875C45.5078 13.6094 45.5436 13.541 45.5762 13.4824C45.6087 13.4238 45.651 13.362 45.7031 13.2969C45.7227 13.2643 45.7422 13.2318 45.7617 13.1992C45.7812 13.1667 45.7975 13.1341 45.8105 13.1016C45.8236 13.069 45.8398 13.0365 45.8594 13.0039C45.8789 12.9714 45.8984 12.9388 45.918 12.9062C45.9375 12.8737 45.957 12.8411 45.9766 12.8086C45.9961 12.7695 46.0124 12.7272 46.0254 12.6816C46.0514 12.597 46.1003 12.5156 46.1719 12.4375C46.2174 12.3854 46.2565 12.3366 46.2891 12.291C46.3281 12.2389 46.3607 12.1901 46.3867 12.1445C46.4323 12.0599 46.5169 12.0013 46.6406 11.9688C46.7513 12.0208 46.8652 12.0013 46.9824 11.9102C47.1061 11.8125 47.207 11.819 47.2852 11.9297C47.4674 12.0469 47.5911 12.138 47.6562 12.2031C47.7344 12.2747 47.7865 12.3464 47.8125 12.418C47.8776 12.5352 47.8841 12.6556 47.832 12.7793C47.7799 12.903 47.6888 13.0104 47.5586 13.1016C47.513 13.3034 47.4219 13.5117 47.2852 13.7266C47.2201 13.8242 47.1582 13.9219 47.0996 14.0195C47.041 14.1107 46.9857 14.2018 46.9336 14.293L46.7773 14.6836C46.6992 14.8659 46.6178 15.0482 46.5332 15.2305C46.4486 15.4128 46.3542 15.5885 46.25 15.7578C46.1654 15.9336 46.1003 16.0475 46.0547 16.0996C46.0156 16.1517 45.9798 16.2038 45.9473 16.2559C45.9212 16.3014 45.8724 16.4154 45.8008 16.5977ZM52.9297 14.6836C53.0143 14.638 53.1185 14.5404 53.2422 14.3906C53.3659 14.2344 53.4863 14.0846 53.6035 13.9414C53.7207 13.7917 53.8086 13.707 53.8672 13.6875C53.9062 13.6224 53.9421 13.5671 53.9746 13.5215C54.0072 13.4759 54.056 13.4336 54.1211 13.3945C54.2253 13.2057 54.362 13.0462 54.5312 12.916C54.707 12.7793 54.8698 12.6328 55.0195 12.4766C55.1432 12.4245 55.2669 12.3659 55.3906 12.3008C55.5208 12.2357 55.6478 12.1608 55.7715 12.0762C56.0254 11.9069 56.3086 11.819 56.6211 11.8125C56.7643 11.8776 56.9043 11.8971 57.041 11.8711C57.1712 11.8451 57.2982 11.8776 57.4219 11.9688C57.4935 12.0924 57.5521 12.1673 57.5977 12.1934C57.6432 12.2194 57.6823 12.2552 57.7148 12.3008C57.7669 12.4635 57.806 12.571 57.832 12.623C57.8646 12.6751 57.8841 12.7305 57.8906 12.7891C57.8971 12.8867 57.9036 12.9714 57.9102 13.043C57.9167 13.1081 57.9232 13.1634 57.9297 13.209C57.9362 13.2936 57.9362 13.375 57.9297 13.4531C57.8906 13.7852 57.8255 14.1172 57.7344 14.4492C57.7214 14.4883 57.7083 14.5273 57.6953 14.5664C57.6823 14.6055 57.6693 14.6478 57.6562 14.6934C57.6302 14.778 57.5977 14.8529 57.5586 14.918C57.4609 15.0417 57.3926 15.1426 57.3535 15.2207C57.2949 15.3249 57.2526 15.3932 57.2266 15.4258C57.1484 15.5039 57.0736 15.5755 57.002 15.6406C56.9368 15.7057 56.875 15.7643 56.8164 15.8164C56.7578 15.849 56.6992 15.8848 56.6406 15.9238C56.582 15.9564 56.5234 15.9922 56.4648 16.0312C56.3542 16.1029 56.224 16.1549 56.0742 16.1875L55.8984 16.2949C55.8398 16.334 55.7747 16.3568 55.7031 16.3633C55.5859 16.4479 55.4557 16.5163 55.3125 16.5684C55.2474 16.5944 55.179 16.6204 55.1074 16.6465C55.0423 16.6725 54.974 16.7018 54.9023 16.7344C54.8047 16.7734 54.7201 16.819 54.6484 16.8711C54.5768 16.9232 54.4857 16.9753 54.375 17.0273C54.3164 17.0469 54.222 17.0697 54.0918 17.0957C53.9681 17.1152 53.8802 17.138 53.8281 17.1641C53.8932 17.2943 53.9193 17.457 53.9062 17.6523C53.8997 17.8346 53.9323 17.9974 54.0039 18.1406C54.1732 18.1797 54.3587 18.209 54.5605 18.2285C54.7624 18.248 54.9544 18.2448 55.1367 18.2188C55.1693 18.2122 55.2018 18.2025 55.2344 18.1895C55.2734 18.1764 55.3125 18.1634 55.3516 18.1504C55.3906 18.1374 55.4297 18.1243 55.4688 18.1113C55.5078 18.0983 55.5469 18.0885 55.5859 18.082C55.7292 18.056 55.8691 18.0234 56.0059 17.9844C56.1426 17.9453 56.263 17.8932 56.3672 17.8281C56.7448 17.6979 57.1094 17.5221 57.4609 17.3008C57.8125 17.0794 58.1185 16.8385 58.3789 16.5781C58.5352 16.474 58.7077 16.3307 58.8965 16.1484C59.0853 15.9661 59.2318 15.7969 59.3359 15.6406C59.5312 15.4323 59.7038 15.2695 59.8535 15.1523C60.0033 15.0352 60.1432 14.9831 60.2734 14.9961C60.3776 14.9961 60.4785 15.0579 60.5762 15.1816C60.6738 15.3053 60.6641 15.4388 60.5469 15.582C60.4232 15.6602 60.2865 15.7773 60.1367 15.9336C59.9935 16.0898 59.8438 16.2005 59.6875 16.2656C59.5768 16.3372 59.4303 16.4805 59.248 16.6953C59.0723 16.8971 58.9258 17.0534 58.8086 17.1641C58.7826 17.1901 58.7533 17.2194 58.7207 17.252C58.6882 17.2845 58.6491 17.3171 58.6035 17.3496C58.5189 17.4147 58.4505 17.4831 58.3984 17.5547C58.1966 17.724 58.0013 17.8672 57.8125 17.9844C57.7409 17.9583 57.6823 17.9714 57.6367 18.0234C57.5781 18.0951 57.526 18.1471 57.4805 18.1797C57.4609 18.1927 57.4414 18.2057 57.4219 18.2188C57.4023 18.2318 57.3796 18.2448 57.3535 18.2578C57.3275 18.2708 57.3047 18.2839 57.2852 18.2969C57.2656 18.3099 57.2461 18.3229 57.2266 18.3359C57.1224 18.4271 57.0085 18.5182 56.8848 18.6094C56.7611 18.7005 56.6341 18.7786 56.5039 18.8438C56.3737 18.9219 56.2435 18.9935 56.1133 19.0586C55.9831 19.1302 55.8529 19.1921 55.7227 19.2441C55.5924 19.2962 55.4622 19.3581 55.332 19.4297C55.2083 19.5013 55.0846 19.5794 54.9609 19.6641L54.7461 19.6934C54.7135 19.6999 54.681 19.7031 54.6484 19.7031C54.6159 19.7096 54.5833 19.7161 54.5508 19.7227C54.4792 19.7487 54.4108 19.7617 54.3457 19.7617C54.2806 19.7617 54.1992 19.7487 54.1016 19.7227C53.6719 19.6055 53.3203 19.3971 53.0469 19.0977C53.0078 19.0586 52.9655 19.0228 52.9199 18.9902C52.8809 18.9512 52.8385 18.9154 52.793 18.8828C52.6888 18.8047 52.6172 18.7331 52.5781 18.668C52.5195 18.5703 52.4609 18.4173 52.4023 18.209C52.3372 18.0007 52.2819 17.7891 52.2363 17.5742C52.1908 17.3529 52.168 17.1836 52.168 17.0664C52.207 16.9883 52.2493 16.8548 52.2949 16.666C52.3405 16.4707 52.3796 16.2786 52.4121 16.0898C52.4447 15.8945 52.4609 15.7578 52.4609 15.6797C52.487 15.6536 52.5391 15.569 52.6172 15.4258C52.6888 15.276 52.7572 15.1263 52.8223 14.9766C52.8939 14.8203 52.9297 14.7227 52.9297 14.6836ZM56.0742 13.4336C55.9831 13.5508 55.8919 13.6615 55.8008 13.7656C55.7096 13.8698 55.6055 13.9674 55.4883 14.0586C55.4102 14.2018 55.319 14.332 55.2148 14.4492C55.1107 14.5664 55.0065 14.6771 54.9023 14.7812C54.8503 14.8854 54.7917 14.9668 54.7266 15.0254C54.6615 15.084 54.5898 15.1458 54.5117 15.2109C54.4271 15.3542 54.3229 15.4909 54.1992 15.6211C54.0755 15.7513 54.0495 15.901 54.1211 16.0703C54.2643 16.0964 54.4076 16.0768 54.5508 16.0117C54.694 15.9466 54.8177 15.888 54.9219 15.8359C54.974 15.8034 55.026 15.7741 55.0781 15.748C55.1367 15.722 55.1921 15.696 55.2441 15.6699C55.2962 15.6439 55.3483 15.6178 55.4004 15.5918C55.4525 15.5658 55.5013 15.5365 55.5469 15.5039L56.0547 14.9961C56.1328 14.9245 56.2109 14.8398 56.2891 14.7422C56.3216 14.6966 56.3542 14.651 56.3867 14.6055C56.4258 14.5534 56.4648 14.5013 56.5039 14.4492C56.5365 14.306 56.5885 14.1725 56.6602 14.0488C56.7383 13.9186 56.7708 13.7852 56.7578 13.6484C56.7513 13.5898 56.7285 13.5215 56.6895 13.4434C56.6504 13.3652 56.6276 13.3034 56.6211 13.2578C56.4844 13.2578 56.3835 13.2806 56.3184 13.3262C56.2858 13.3522 56.2467 13.375 56.2012 13.3945C56.1621 13.4076 56.1198 13.4206 56.0742 13.4336Z" fill="#995544"/>
</svg>
